<svg xmlns="http://www.w3.org/2000/svg" width="75.429" height="100.5" viewBox="0 0 75.429 100.5"><defs><style>.a{fill:#8154EF;}.b{fill:#ececec;}.c,.d,.f,.g{fill:none;}.c{stroke:#042a2b;}.d{stroke:#000;stroke-width:0.5px;}.e{fill:#042a2b;}.f,.g{stroke:#8154EF;stroke-miterlimit:10;}.g{stroke-linecap:round;}</style></defs><g transform="translate(13.358)"><path class="a" d="M14.141,7.813A3.928,3.928,0,0,0,18.09,3.907a3.949,3.949,0,0,0-7.9,0A3.928,3.928,0,0,0,14.141,7.813Z"/><path class="b" d="M40.891,21.826a3.907,3.907,0,1,0-3.949-3.907A3.928,3.928,0,0,0,40.891,21.826Z"/><path class="b" d="M3.949,49.852a3.907,3.907,0,1,0,0-7.813,3.907,3.907,0,1,0,0,7.813Z"/><path class="b" d="M32.654,58.811a.909.909,0,0,1,.807,1.019v.127a.913.913,0,0,1-.807,1.019.972.972,0,0,1-.849-1.019V59.83a.947.947,0,0,1,.849-1.019Z"/><path class="b" d="M36.985,87.049V75.838a1.656,1.656,0,0,1,1.656-1.656H55.286a1.656,1.656,0,0,1,1.656,1.656v9.979a1.656,1.656,0,0,1-1.656,1.656H37.452a.424.424,0,0,1-.467-.425Z"/><path class="c" d="M27.771,70.234V56.391a.51.51,0,0,1,.467-.51H49.724a.518.518,0,0,1,.51.51V70.234a.518.518,0,0,1-.51.509H28.238a.48.48,0,0,1-.467-.509Z"/><path class="d" d="M31.975,58.981a1.274,1.274,0,0,1,1.274,1.274v.17a1.274,1.274,0,0,1-2.548,0v-.17a1.274,1.274,0,0,1,1.274-1.274Z"/><path class="b" d="M38.939,58.6h7.728c.722,0,1.274.425,1.274.977s-.552.977-1.274.977H38.939c-.722,0-1.274-.425-1.274-.977S38.217,58.6,38.939,58.6Z"/><path class="d" d="M37.665,58.981h8.28a1.359,1.359,0,1,1,0,2.718h-8.28a1.359,1.359,0,1,1,0-2.718Z"/><path class="b" d="M38.939,64.5h7.728c.722,0,1.274.425,1.274.977s-.552.977-1.274.977H38.939c-.722,0-1.274-.425-1.274-.977S38.217,64.5,38.939,64.5Z"/><path class="b" d="M32.654,64.713a.909.909,0,0,1,.807,1.019v.127a.913.913,0,0,1-.807,1.019A.972.972,0,0,1,31.8,65.86v-.127a.973.973,0,0,1,.849-1.019Z"/><path class="d" d="M37.665,64.926h8.28A1.342,1.342,0,0,1,47.3,66.285h0a1.342,1.342,0,0,1-1.359,1.359h-8.28a1.359,1.359,0,1,1,0-2.718Z"/><path class="d" d="M31.975,64.925A1.274,1.274,0,0,1,33.249,66.2v.17a1.274,1.274,0,1,1-2.548,0V66.2a1.274,1.274,0,0,1,1.274-1.274Z"/><path class="c" d="M32.908,89.682V75.8a.518.518,0,0,1,.51-.51H54.9a.518.518,0,0,1,.509.51V89.682a.518.518,0,0,1-.509.51H33.418a.493.493,0,0,1-.51-.51Z"/><path class="e" d="M46.5,83.652a.242.242,0,0,0,.34.34Zm2.463-1.911.17.17.212-.17-.17-.17Zm-2.208-2.463a.242.242,0,1,0-.34.34Zm.085,4.756,2.25-2.081-.34-.382-2.293,2.081Zm2.293-2.463-2.335-2.293-.34.34,2.336,2.293Z"/><path class="e" d="M41.4,83.822a.242.242,0,1,1-.34.34Zm-2.463-1.911-.17.17-.212-.17.17-.17Zm2.208-2.505a.242.242,0,0,1,.431.119.24.24,0,0,1-.007.094.242.242,0,0,1-.042.084l-.042.043Zm-.085,4.8-2.293-2.081.34-.382L41.4,83.822Zm-2.293-2.463L41.1,79.448l.34.34-2.336,2.293Z"/><path class="e" d="M45.945,77.707a.257.257,0,1,0-.467-.212Zm-4.119,9.172a.257.257,0,1,0,.467.212Zm3.694-9.384-3.694,9.384.467.17,3.694-9.384Z"/><path class="c" d="M40.764,41.868H55.541a3.788,3.788,0,0,1,3.779,3.779V96.221A3.788,3.788,0,0,1,55.541,100H27.134a3.788,3.788,0,0,1-3.779-3.779V50.658"/><path class="f" d="M59.449,28.62A2.123,2.123,0,1,0,57.325,26.5,2.123,2.123,0,0,0,59.449,28.62Z"/><path class="g" d="M5.944,67.261l-.552,2.505L4.8,72.229,2.972,70.488,1.1,68.747l2.42-.722Z"/><g transform="translate(-181.375 -280.143)"><circle class="a" cx="6" cy="6" r="6" transform="translate(200.375 299.143)"/><path class="e" d="M211.992,124.964V106.328a4.322,4.322,0,0,0,3.227-4.066,4.624,4.624,0,0,0-9.219,0,4.322,4.322,0,0,0,3.227,4.066v18.635A4.322,4.322,0,0,0,206,129.03a4.624,4.624,0,0,0,9.219,0A4.322,4.322,0,0,0,211.992,124.964Zm0,0" transform="translate(-5.72 203.884)"/><path class="c" d="M32.042,35.126A18.736,18.736,0,0,0,39.259,33.7,22.524,22.524,0,0,0,44.9,36.453v-8.16A11.571,11.571,0,0,1,42,25.865a9.641,9.641,0,0,1-2.4-6.312c0-5.828,5.423-10.569,12.09-10.569s12.09,4.741,12.09,10.569a9.641,9.641,0,0,1-2.4,6.312A11.582,11.582,0,0,1,58.5,28.293V36.9a22.493,22.493,0,0,0,8.619-4.275,14.022,14.022,0,0,0,8.088,2.5c7.093,0,12.864-5.045,12.864-11.246S82.3,12.633,75.2,12.633a14.69,14.69,0,0,0-2.325.184,19.109,19.109,0,0,0-6.794-8.576A23.564,23.564,0,0,0,52.467,0,22.79,22.79,0,0,0,36.31,6.378,18.955,18.955,0,0,0,32.042,5.9c-9.218,0-16.718,6.556-16.718,14.615s7.5,14.615,16.718,14.615Zm0,0" transform="translate(153.193 282.63)"/><circle class="a" cx="6" cy="6" r="6" transform="translate(170.375 324.143)"/><path class="c" d="M19.5,289.476v8.968H12.7A6.485,6.485,0,0,0,6.5,294.1a6.214,6.214,0,1,0,0,12.415,6.485,6.485,0,0,0,6.2-4.345H23.4V289.6c-.45-.229-.894-.472-1.328-.731A19.115,19.115,0,0,1,19.5,289.476Zm0,0" transform="translate(172.114 30.663)"/><circle class="a" cx="6" cy="6" r="6" transform="translate(223.375 331.143)"/><path class="c" d="M348.451,291.477a6.714,6.714,0,0,0-3.834,1.18l-8.82-4.695v-4.109l-.235-.1A22.43,22.43,0,0,1,332,285.593v4.343l10.421,5.547a5.243,5.243,0,0,0-.3,1.739c0,3.168,2.839,5.745,6.327,5.745s6.327-2.577,6.327-5.745S351.94,291.477,348.451,291.477Zm0,0" transform="translate(-119.739 36.584)"/></g></g></svg>