<svg xmlns="http://www.w3.org/2000/svg" viewBox="0 0 214.29 208.57"><defs><style>.cls-1{fill:#8154EF;}.cls-2,.cls-3,.cls-4,.cls-5,.cls-6,.cls-7{fill:none;}.cls-2,.cls-3{stroke:#8154EF;stroke-miterlimit:10;stroke-width:2.54px;}.cls-3,.cls-5,.cls-6,.cls-7{stroke-linecap:round;}.cls-4,.cls-5,.cls-6,.cls-7{stroke:#042a2b;}.cls-4{stroke-width:3.07px;}.cls-5{stroke-width:3.07px;}.cls-6{stroke-width:2.67px;}.cls-7{stroke-width:2.3px;}</style></defs><title>Available in your timezone</title><g id="Layer_2" data-name="Layer 2"><g id="Layer_1-2" data-name="Layer 1"><path class="cls-1" d="M211.52,156.93c-.38,0-.19,1.17-1.37,2.75-1.91,2.55-4.08,2-6.88,4.13-.46.35-4.05,3.17-4.13,6.88,0,2.66,1.76,3.24,1.38,5.5-.43,2.59-2.93,2.54-4.13,5.5a8.78,8.78,0,0,0,1.38,8.25c.33.44,2.4,3.23,4.12,2.76s1.23-3.76,3.44-7.57c1.82-3.13,3.64-3.46,5.51-5.5C217.33,172.5,212.94,156.94,211.52,156.93Z"/><path class="cls-1" d="M195.35,121.09c-.64-1-2.47.06-5.24-1-1.15-.46-2.87-1.46-5.25-5.25-3.61-5.75-2.27-7.65-5.25-12.59-1.42-2.36-4-6.69-8.39-7.35a10.39,10.39,0,0,0-6.3,1.05c-1.63,1-1.83,1.91-3.14,2.1-2.06.31-4.18-1.6-5.25-3.15-1.74-2.5-.67-4-2.1-5.24-1.21-1.09-2.71-.67-8.39,0-7.15.84-7,.44-8.4,1-2.77,1.2-4.29,3.25-7.34,7.34-3.27,4.39-4.91,6.59-5.25,9.45-.5,4.18,1.41,7.48,3.15,10.49,2.1,3.63,4.44,7.68,8.39,8.39,3.28.59,8.87-.89,9.45-1a5.91,5.91,0,0,1,4.19,0,5,5,0,0,1,2.1,2.1c1.22,2.08.31,3.14,1,5.25,1,2.83,3.16,2.38,4.2,5.25a9.29,9.29,0,0,1,0,5.24c-.61,2.85-1.7,3.38-2.1,5.25-.59,2.74,1.19,4.31,3.15,8.39,3.76,7.86,2.17,12.49,5.24,13.64,1.51.57,3.07-.1,5.25-1.05a15,15,0,0,0,6.3-5.24c2.54-3.68,1-4.79,3.14-8.4,2.83-4.7,6.39-4.32,7.35-8.39a14.76,14.76,0,0,0,0-5.25c-.45-2.68-1.32-3.55-1-5.24.3-1.88,1.72-2.92,3.15-4.2C192.24,128.82,196.49,122.92,195.35,121.09Z"/><circle class="cls-2" cx="168.75" cy="7.57" r="6.3"/><polygon class="cls-3" points="11.85 192.87 14.55 199.87 17.25 206.97 9.75 205.77 2.35 204.57 7.05 198.67 11.85 192.87"/><path class="cls-4" d="M142.25,156.08a57.24,57.24,0,1,1-20.62-64.63"/><line class="cls-5" x1="85.63" y1="88.89" x2="85.63" y2="97.44"/><line class="cls-5" x1="87.34" y1="177.87" x2="87.34" y2="186.43"/><line class="cls-6" x1="37.61" y1="137.52" x2="45.06" y2="137.44"/><line class="cls-7" x1="98.24" y1="130.94" x2="74.59" y2="150.67"/><line class="cls-7" x1="74.59" y1="150.67" x2="63.22" y2="137.05"/><path class="cls-4" d="M191.33,132.17c-.84-1.35-3.25.08-6.88-1.37-1.5-.6-3.76-1.91-6.88-6.88-4.73-7.54-3-10-6.88-16.51-1.86-3.09-5.27-8.76-11-9.62a13.61,13.61,0,0,0-8.25,1.37c-2.15,1.27-2.41,2.5-4.13,2.75-2.69.41-5.47-2.09-6.88-4.12-2.27-3.29-.88-5.21-2.75-6.88-1.59-1.42-3.55-.88-11,0-9.38,1.1-9.17.58-11,1.37-3.62,1.58-5.62,4.26-9.62,9.63-4.29,5.76-6.43,8.63-6.88,12.38-.66,5.48,1.85,9.82,4.13,13.76,2.75,4.76,5.82,10.07,11,11,4.3.78,11.62-1.17,12.38-1.37,1.24-.34,3.43-1,5.5,0a6.56,6.56,0,0,1,2.75,2.75c1.6,2.72.41,4.12,1.38,6.87,1.3,3.72,4.14,3.13,5.5,6.88a12.14,12.14,0,0,1,0,6.88c-.8,3.73-2.23,4.43-2.75,6.88-.77,3.59,1.56,5.64,4.12,11,4.94,10.3,2.85,16.37,6.88,17.88,2,.74,4-.14,6.88-1.37a19.94,19.94,0,0,0,8.25-6.88c3.34-4.82,1.28-6.27,4.13-11,3.71-6.15,8.37-5.66,9.63-11a19.42,19.42,0,0,0,0-6.88c-.59-3.51-1.74-4.66-1.38-6.87.4-2.46,2.26-3.83,4.13-5.51C187.25,142.31,192.82,134.57,191.33,132.17Z"/><path class="cls-4" d="M202.33,156.93c-.38,0-.19,1.17-1.37,2.75-1.91,2.55-4.09,2-6.88,4.13-.47.35-4.05,3.17-4.13,6.88,0,2.66,1.75,3.24,1.38,5.5-.43,2.59-2.93,2.54-4.13,5.5a8.78,8.78,0,0,0,1.38,8.25c.33.44,2.39,3.23,4.12,2.76s1.23-3.76,3.44-7.57c1.82-3.13,3.64-3.46,5.5-5.5C208.14,172.5,203.74,156.94,202.33,156.93Z"/></g></g></svg>