<?xml version="1.0" encoding="utf-8"?>
<!-- Generator: Adobe Illustrator 26.0.2, SVG Export Plug-In . SVG Version: 6.00 Build 0)  -->
<svg version="1.1" id="Layer_1" xmlns="http://www.w3.org/2000/svg" xmlns:xlink="http://www.w3.org/1999/xlink" x="0px" y="0px"
	 viewBox="0 0 226.7 103.8" style="enable-background:new 0 0 226.7 103.8;" xml:space="preserve">
<style type="text/css">
	.st0{fill:#089DD1;}
	.st1{fill:#82CDE6;}
	.st2{fill:#20265C;}
	.st3{fill:none;}
</style>
<g id="Layer_2_00000102507654318491235820000009608467524368975791_">
	<g id="Layer_1-2">
		<path class="st0" d="M29.5,26.5c-4.7-4.7-12.2-4.7-16.9-0.1s-4.7,12.2-0.1,16.9c2.3,2.3,5.3,3.5,8.5,3.5h12V35.1
			C33.1,31.9,31.8,28.7,29.5,26.5"/>
		<path class="st0" d="M53.5,43.4c4.7-4.7,4.7-12.2,0.1-16.9c-4.7-4.7-12.2-4.7-16.9-0.1C34.3,28.7,33,31.7,33,35v12h11.8
			C48.1,47,51.2,45.7,53.5,43.4"/>
		<path class="st1" d="M12.5,50.4c-4.7,4.7-4.7,12.2-0.1,16.9c4.7,4.7,12.2,4.7,16.9,0.1c2.3-2.3,3.6-5.3,3.5-8.6v-12H21.2
			C17.9,46.9,14.8,48.2,12.5,50.4"/>
		<path class="st2" d="M43.5,71.4c-7.7,0-14-6.3-14-14.1V34c-0.1-2,1.4-3.7,3.4-3.8c2-0.1,3.7,1.4,3.8,3.4c0,0.1,0,0.3,0,0.4v23.2
			c-0.1,3.8,3,7,6.8,7s7-3,7-6.8c0.1-3.8-3-7-6.8-7c0,0,0,0,0,0h-0.1c-2-0.1-3.5-1.8-3.3-3.8c0.1-1.8,1.5-3.2,3.3-3.3
			c7.8,0,14.1,6.3,14.1,14.1s-6.3,14.1-14.1,14.1"/>
		<path class="st2" d="M26.5,46.8c0,2-1.6,3.6-3.6,3.6s-3.6-1.6-3.6-3.6c0-2,1.6-3.6,3.6-3.6l0,0C24.9,43.3,26.4,44.9,26.5,46.8
			L26.5,46.8"/>
		<path class="st2" d="M80.9,52c-1.2,0-2.4,0.2-3.5,0.7c-1.1,0.4-2.1,1-2.9,1.8c-0.8,0.8-1.4,1.8-1.7,2.8c-0.4,1.1-0.7,2.3-0.7,3.5
			c0,1.2,0.2,2.3,0.7,3.4c0.4,1.1,1,2.1,1.8,2.9c0.8,0.8,1.7,1.5,2.8,1.9c1.1,0.5,2.3,0.7,3.5,0.7c1.3,0,2.7-0.2,3.9-0.8
			c1.1-0.5,2-1.2,2.8-2c0.7-0.8,1.3-1.8,1.7-2.9c0.8-2.2,0.7-4.6-0.1-6.8c-0.9-2.1-2.6-3.8-4.7-4.6C83.2,52.2,82.1,52,80.9,52
			 M81,71.5c-2,0.1-3.9-0.4-5.7-1.4c-1.2-0.7-2.3-1.7-3.1-2.9v3.9h-1.9V43h1.8v11.7c0.2-0.3,0.4-0.6,0.7-0.9
			c0.6-0.7,1.3-1.3,2.1-1.8c0.8-0.5,1.7-0.9,2.7-1.2c1.1-0.3,2.2-0.5,3.3-0.5l0,0c1.5,0,3,0.3,4.4,0.9c2.5,1.1,4.5,3.2,5.5,5.8
			c1,2.6,1,5.4,0,8c-0.5,1.3-1.2,2.4-2.1,3.4C86.7,70.4,83.8,71.6,81,71.5"/>
		<path class="st2" d="M95.6,59.6h17.5c-0.1-1-0.4-1.9-0.8-2.7c-0.5-1-1.2-1.9-2-2.6c-0.8-0.7-1.7-1.3-2.8-1.7
			c-1-0.4-2.1-0.6-3.2-0.6c-1.1,0-2.2,0.2-3.3,0.6c-1,0.4-1.9,1-2.7,1.7c-0.8,0.7-1.5,1.6-1.9,2.6C96,57.7,95.7,58.7,95.6,59.6
			 M104.4,71.6c-1.5,0-3-0.3-4.3-0.8c-2.6-1-4.6-3.1-5.7-5.7c-0.5-1.3-0.8-2.7-0.8-4.2l0,0c0-2.8,1.1-5.6,3.1-7.6
			c1-1,2.2-1.8,3.5-2.3c2.6-1,5.5-1.1,8.1-0.1c1.2,0.5,2.4,1.2,3.3,2c1,0.9,1.8,2,2.4,3.2c0.6,1.3,0.9,2.8,1,4.2v1H95.5
			c0.1,3.6,2.5,6.7,5.9,7.8c0.9,0.3,1.9,0.5,2.9,0.5c1.7,0,3.3-0.4,4.8-1.2c1.4-0.9,2.5-2.1,3.2-3.6l0.1-0.2h2l-0.3,0.6
			c-0.4,1.1-1,2-1.8,2.9c-0.7,0.8-1.5,1.4-2.4,2c-0.9,0.5-1.8,0.9-2.8,1.2c-1,0.3-2,0.4-3,0.4"/>
		<path class="st2" d="M136.6,71.1h-1.9V60.4c0-1.4-0.2-2.8-0.6-4.1c-0.3-1-0.9-1.8-1.7-2.5c-0.7-0.6-1.5-1.1-2.4-1.3
			c-0.9-0.3-1.9-0.4-2.9-0.4c-2-0.1-4,0.6-5.5,1.9c-1.4,1.5-2.1,3.4-1.9,5.4v11.7h-1.9V50.7h1.9v2.7c0.2-0.3,0.4-0.5,0.7-0.7
			c0.6-0.6,1.3-1.1,2-1.4c0.7-0.4,1.5-0.7,2.4-0.8c0.8-0.2,1.6-0.2,2.5-0.2l0,0c2.3-0.1,4.6,0.6,6.4,2c1.9,1.7,3,4.3,3,8L136.6,71.1
			z"/>
		<path class="st2" d="M141,59.6h17.5c-0.1-1-0.4-1.9-0.8-2.7c-0.5-1-1.2-1.9-2-2.6c-0.8-0.7-1.7-1.3-2.8-1.7
			c-1-0.4-2.1-0.6-3.1-0.5c-1.1,0-2.3,0.2-3.3,0.6c-1,0.4-1.9,1-2.7,1.7c-0.8,0.7-1.5,1.6-1.9,2.6C141.3,57.7,141,58.7,141,59.6
			 M149.7,71.6c-1.5,0-3-0.3-4.3-0.8c-1.3-0.5-2.4-1.3-3.4-2.3c-1-1-1.7-2.1-2.2-3.4c-0.5-1.3-0.8-2.7-0.8-4.2l0,0
			c0-2.9,1.1-5.6,3.1-7.7c1-1,2.1-1.7,3.4-2.3c2.6-1,5.5-1.1,8.1-0.1c1.2,0.5,2.4,1.2,3.4,2c1,0.9,1.8,2,2.4,3.2
			c0.6,1.3,1,2.8,1,4.2l-0.1,1h-19.4c0,1.2,0.3,2.4,0.9,3.5c1,2.1,2.8,3.6,5,4.3c0.9,0.3,1.9,0.5,2.9,0.5c1.7,0,3.3-0.4,4.7-1.3
			c1.4-0.9,2.6-2.1,3.3-3.6l0.1-0.2h2l-0.2,0.6c-1.2,3-3.8,5.2-6.9,6C151.7,71.4,150.7,71.6,149.7,71.6"/>
		<polygon class="st2" points="170,71.1 168.1,71.1 168,70.8 159.7,50.7 161.7,50.7 169,68.4 176.2,50.7 178.3,50.7 		"/>
		<path class="st2" d="M182.4,47.1h-1.8v-4.2h1.8V47.1z M182.4,71h-1.8V50.7h1.8V71z"/>
		<polygon class="st2" points="191.5,71.1 189.6,71.1 189.6,52.5 185.3,52.5 185.3,50.7 189.6,50.7 189.6,43 191.5,43 191.5,50.7 
			196.5,50.7 196.5,52.5 191.5,52.5 		"/>
		<polygon class="st2" points="203.8,78.9 201.7,78.9 205.4,70.6 197.5,50.7 199.5,50.7 206.5,68.1 213.9,50.7 216,50.7 		"/>
		<rect class="st3" width="226.7" height="103.8"/>
	</g>
</g>
</svg>
