<svg xmlns="http://www.w3.org/2000/svg" xmlns:xlink="http://www.w3.org/1999/xlink" viewBox="0 0 226.73 103.75"><defs><style>.cls-1{fill:none;}.cls-2{clip-path:url(#clip-path);}.cls-3{fill:#0f3456;}.cls-4{clip-path:url(#clip-path-2);}.cls-5{fill:#d9a828;}.cls-6{clip-path:url(#clip-path-6);}</style><clipPath id="clip-path"><rect class="cls-1" x="50.56" y="37.44" width="134.51" height="37.36"/></clipPath><clipPath id="clip-path-2"><rect class="cls-1" x="50.54" y="37.44" width="134.53" height="37.36"/></clipPath><clipPath id="clip-path-6"><rect class="cls-1" x="50.54" y="37.44" width="134.53" height="37.36"/></clipPath></defs><g id="Layer_2" data-name="Layer 2"><g id="Layer_1-2" data-name="Layer 1"><g class="cls-2"><path class="cls-3" d="M55.15,48.88v4.69h3.38c1.61,0,3.73-.09,3.73-2.31s-1.92-2.36-2.91-2.38Zm0-7.55v4H58.8c1.1,0,2.88-.09,2.88-2.09s-1.61-2-2.55-2Zm-4.6-3.62H58a18.5,18.5,0,0,1,5,.47,4.76,4.76,0,0,1,3,6.36,4.73,4.73,0,0,1-3.78,2.58,6,6,0,0,1,3.81,1.65,4.34,4.34,0,0,1,1.07,2.9A5.15,5.15,0,0,1,64,56.36a12.81,12.81,0,0,1-5.24.72H50.55Z"/></g><g class="cls-4"><path class="cls-3" d="M74,44.24a6.64,6.64,0,0,1,4.14-1.64v3.72l-1.39.22c-2,.36-2.64.66-2.64,2.47v8.06H69.91V42.73H74Z"/><path class="cls-3" d="M84.23,47.07a5.11,5.11,0,0,0-.71,2.8c0,2.27,1.09,4.27,3.45,4.27s3.4-1.83,3.4-4.09a4.87,4.87,0,0,0-1.18-3.59,3.09,3.09,0,0,0-2.47-.79,2.81,2.81,0,0,0-2.49,1.4m10.42,2.82c0,3.62-2.09,7.6-7.68,7.6-4,0-7.71-2.3-7.71-7.6,0-4.39,2.77-7.87,8.26-7.57,5.84.33,7.13,5,7.13,7.57"/><path class="cls-3" d="M101.37,47.07a5.21,5.21,0,0,0-.72,2.8c0,2.27,1.1,4.27,3.46,4.27s3.4-1.83,3.4-4.09a4.83,4.83,0,0,0-1.18-3.59,3.08,3.08,0,0,0-2.47-.79,2.84,2.84,0,0,0-2.49,1.4m10.42,2.82c0,3.62-2.08,7.6-7.68,7.6-4,0-7.71-2.3-7.71-7.6,0-4.39,2.77-7.87,8.26-7.57,5.84.33,7.13,5,7.13,7.57"/></g><polygon class="cls-3" points="114.51 37.71 114.51 57.08 118.62 57.08 118.62 52.6 120.43 50.9 124.11 57.08 128.99 57.08 123.42 47.86 128.35 42.76 123.28 42.76 118.64 47.67 118.64 37.71 114.51 37.71"/><g class="cls-4"><path class="cls-3" d="M131.21,41.33a4.13,4.13,0,0,1,.6-2.44,4.41,4.41,0,0,1,3.67-1.45,21,21,0,0,1,2.53.24v3.16h-1c-1.59,0-1.67.33-1.64,2.25h2.83v2.58h-2.8v11.4h-4.2V45.67h-2.25V43.09h2.28Z"/></g><path class="cls-3" d="M140.28,57.07h4.17V42.73h-4.17Zm0-16.12h4.17V37.68h-4.17Z"/><g class="cls-4"><path class="cls-3" d="M157.43,48.14a3.47,3.47,0,0,0-.8-2,3,3,0,0,0-2.06-.8,2.9,2.9,0,0,0-2.13.93,3.75,3.75,0,0,0-.86,1.9Zm4.19,5.28a11,11,0,0,1-1.73,2.15,7.85,7.85,0,0,1-5.4,2c-4.25,0-7.24-2.72-7.24-7.41,0-3.45,1.7-7.9,7.35-7.9a7,7,0,0,1,5.16,2.06c1.86,2,2,4.8,2,6.42H151.55a3.23,3.23,0,0,0,3.26,3.56,3.8,3.8,0,0,0,3.63-2.52Z"/></g><rect class="cls-3" x="164.23" y="37.71" width="4.22" height="19.36"/><g class="cls-4"><path class="cls-3" d="M181.06,49.92a5.87,5.87,0,0,0-.9-3.54,2.2,2.2,0,0,0-1.65-.85c-3,0-3,3.75-3,4.39,0,2,.55,4.44,2.69,4.44a2.48,2.48,0,0,0,1.37-.44c1.48-1,1.48-3.21,1.48-4m4-12.21V57.07h-3.84V55.73a5.08,5.08,0,0,1-3.87,1.73,5.79,5.79,0,0,1-4-1.65A7.93,7.93,0,0,1,171.25,50c0-5.4,3.07-7.63,5.94-7.63A5.85,5.85,0,0,1,181,43.83V37.71Z"/><path class="cls-5" d="M97.31,63.37v4.16h.87c.85,0,1.16,0,1.64,0a2.07,2.07,0,0,0,2.33-2,1.91,1.91,0,0,0-1.06-1.79,6.13,6.13,0,0,0-2.63-.28Zm-2.47-2.15h4.24c1.77,0,3,0,4.13,1a4.07,4.07,0,0,1,1.46,3.28,3.63,3.63,0,0,1-2.62,3.65l3,5.4h-2.84l-2.63-4.93H97.31v4.93H94.84Z"/></g><g class="cls-6"><path class="cls-5" d="M112.81,68.6a2,2,0,0,0-2.11-2,2.22,2.22,0,0,0-2.3,2Zm2.56,3.81a5.48,5.48,0,0,1-4.59,2.39,4.65,4.65,0,0,1-4.84-5c0-3.16,2-5,4.68-5a4.23,4.23,0,0,1,3.71,1.77,7,7,0,0,1,1,3.67h-7A2.54,2.54,0,0,0,111,72.6a2.77,2.77,0,0,0,2.45-1.3Z"/><path class="cls-5" d="M118,71.73a3.31,3.31,0,0,0,2.72,1.2c1.3,0,1.87-.63,1.87-1.11s-.68-.75-1-.81-1.87-.35-2.21-.45c-2.24-.53-2.65-1.83-2.65-2.67,0-1.6,1.44-3.07,4-3.07a5.31,5.31,0,0,1,3.1.9,4.06,4.06,0,0,1,1,.85l-1.59,1.49a2.65,2.65,0,0,0-2.57-1.43c-1.07,0-1.56.47-1.56,1,0,.68.7.87,1.9,1.08,2,.36,2.51.45,3.11.92a2.57,2.57,0,0,1,1,2c0,1.46-1.32,3.22-4.24,3.22a6.46,6.46,0,0,1-4.52-1.68Z"/></g><path class="cls-5" d="M126.54,74.52h2.24V65.1h-2.24Zm0-10.89h2.24V61.35h-2.24Z"/><g class="cls-6"><path class="cls-5" d="M136.69,67.78a1.94,1.94,0,0,0-1.66-.87c-1.52,0-2.26,1.37-2.26,2.86,0,.17,0,3,2.23,3,1.16,0,2.22-.86,2.2-2.9a4.15,4.15,0,0,0-.51-2.08m2.76-6.56v13.3h-2.23v-.91a3.27,3.27,0,0,1-2.62,1.19c-2.24,0-4.19-1.68-4.19-4.79,0-2.8,1.59-5.19,4.28-5.19a3.25,3.25,0,0,1,2.53,1.05V61.22Z"/></g><g class="cls-4"><path class="cls-5" d="M148,68.6a2,2,0,0,0-2.11-2,2.23,2.23,0,0,0-2.3,2Zm2.56,3.81a5.49,5.49,0,0,1-4.6,2.39,4.65,4.65,0,0,1-4.83-5c0-3.16,2-5,4.68-5a4.23,4.23,0,0,1,3.71,1.77,6.89,6.89,0,0,1,1,3.67h-7a2.55,2.55,0,0,0,2.68,2.34,2.75,2.75,0,0,0,2.45-1.3Z"/><path class="cls-5" d="M151.92,65.1h2.28v1.11a2.51,2.51,0,0,1,.74-.73,3.85,3.85,0,0,1,2.16-.66A3.11,3.11,0,0,1,159.57,66a5,5,0,0,1,.58,3v5.53h-2.24v-4.8a6.33,6.33,0,0,0-.08-1.43A1.53,1.53,0,0,0,156.29,67a2,2,0,0,0-1.73,1.06,5.34,5.34,0,0,0-.36,2.35v4.08h-2.28Z"/><path class="cls-5" d="M164.93,66.72V71c0,1.16,0,1.67,1.08,1.67a3.27,3.27,0,0,0,.94-.11v1.9a9.57,9.57,0,0,1-1.64.15c-.47,0-2.05,0-2.48-1.15a5.78,5.78,0,0,1-.16-1.92v-4.8H161.3V65.1h1.37V61.77h2.26V65.1h2v1.62Z"/></g><path class="cls-5" d="M168.72,74.52H171V65.1h-2.24Zm0-10.89H171V61.35h-2.24Z"/><g class="cls-4"><path class="cls-5" d="M178.85,69.83a6.73,6.73,0,0,1-2,.56c-.82.12-1.89.3-1.89,1.3,0,.73.62,1.11,1.53,1.11a2.31,2.31,0,0,0,2.2-1.09,1.94,1.94,0,0,0,.13-.85Zm-5.81-2a2.94,2.94,0,0,1,.37-1.41c.9-1.64,3.14-1.64,3.75-1.64a5.7,5.7,0,0,1,2.82.6A2.51,2.51,0,0,1,181.11,68v5a2,2,0,0,0,.41,1.53h-2.67c0-.23,0-.61,0-.74a4.43,4.43,0,0,1-2.79,1c-2.13,0-3.41-1.32-3.41-2.94a2.84,2.84,0,0,1,.3-1.28,3.89,3.89,0,0,1,3-1.82,21,21,0,0,0,2.92-.7c0-.47,0-1.43-1.6-1.43a2,2,0,0,0-1.68.6,1.17,1.17,0,0,0-.23.83Z"/></g><rect class="cls-5" x="182.79" y="61.22" width="2.28" height="13.29"/><rect class="cls-1" width="226.73" height="103.75"/></g></g></svg>