<svg width="20" height="21" viewBox="0 0 20 21" fill="none" xmlns="http://www.w3.org/2000/svg">
<path d="M2.66188 3.18595H3.17453C3.32831 3.18595 3.43095 3.08685 3.43095 2.93795C3.43095 2.78921 3.32849 2.68994 3.17453 2.68994H2.66188C1.71325 2.69011 0.944336 3.43397 0.944336 4.35124V18.3844C0.944336 19.3017 1.71343 20.0455 2.66188 20.0455H17.1712C18.1197 20.0455 18.8888 19.3017 18.8888 18.3844V4.35124C18.8888 3.43392 18.1197 2.69007 17.1712 2.69007H16.5815C16.4277 2.69007 16.3251 2.78917 16.3251 2.93808C16.3251 3.08681 16.4275 3.18609 16.5815 3.18609H17.1711C17.8375 3.18609 18.3759 3.70684 18.3759 4.35138V7.40076H1.45685V4.3512C1.45685 3.70662 1.99509 3.18591 2.66169 3.18591L2.66188 3.18595ZM18.3761 7.89672V18.3844C18.3761 19.029 17.8377 19.5497 17.1712 19.5497H2.66188C1.99541 19.5497 1.45703 19.0289 1.45703 18.3844V7.89672H18.3761Z" fill="#000000" stroke="#000000" stroke-width="0.25"/>
<path d="M6.66089 2.93795C6.66089 3.08669 6.76335 3.18596 6.91731 3.18596H12.8902C13.044 3.18596 13.1467 3.08686 13.1467 2.93795C13.1467 2.78921 13.0442 2.68994 12.8902 2.68994H6.91731C6.78928 2.68994 6.66107 2.78904 6.66107 2.93795H6.66089Z" fill="#000000" stroke="#000000" stroke-width="0.25"/>
<path d="M4.27739 12.6073H5.55914C5.99491 12.6073 6.32823 12.2849 6.32823 11.8634V10.6237C6.32823 10.2023 5.99492 9.87988 5.55914 9.87988H4.27739C3.84162 9.87988 3.5083 10.2023 3.5083 10.6237V11.8634C3.50848 12.2849 3.84161 12.6073 4.27739 12.6073ZM4.02115 10.6237C4.02115 10.475 4.12361 10.3757 4.27757 10.3757H5.55932C5.7131 10.3757 5.81574 10.4748 5.81574 10.6237V11.8634C5.81574 12.0121 5.71328 12.1114 5.55932 12.1114H4.27757C4.12379 12.1114 4.02115 12.0123 4.02115 11.8634V10.6237Z" fill="#000000" stroke="#000000" stroke-width="0.25"/>
<path d="M9.14727 12.6073H10.429C10.8648 12.6073 11.1981 12.2849 11.1981 11.8634V10.6237C11.1981 10.2023 10.8648 9.87988 10.429 9.87988H9.14727C8.7115 9.87988 8.37817 10.2023 8.37817 10.6237V11.8634C8.37817 12.2849 8.71148 12.6073 9.14727 12.6073ZM8.89085 10.6237C8.89085 10.475 8.99331 10.3757 9.14727 10.3757H10.429C10.5828 10.3757 10.6854 10.4748 10.6854 10.6237V11.8634C10.6854 12.0121 10.583 12.1114 10.429 12.1114H9.14727C8.99349 12.1114 8.89085 12.0123 8.89085 11.8634V10.6237Z" fill="#000000" stroke="#000000" stroke-width="0.25"/>
<path d="M14.0189 12.6073H15.3006C15.7364 12.6073 16.0697 12.2849 16.0697 11.8634V10.6237C16.0697 10.2023 15.7364 9.87988 15.3006 9.87988H14.0189C13.5831 9.87988 13.2498 10.2023 13.2498 10.6237V11.8634C13.2498 12.2849 13.5831 12.6073 14.0189 12.6073ZM13.7626 10.6237C13.7626 10.475 13.8651 10.3757 14.019 10.3757H15.3008C15.4546 10.3757 15.5572 10.4748 15.5572 10.6237V11.8634C15.5572 12.0121 15.4547 12.1114 15.3008 12.1114H14.019C13.8652 12.1114 13.7626 12.0123 13.7626 11.8634V10.6237Z" fill="#000000" stroke="#000000" stroke-width="0.25"/>
<path d="M4.27739 17.3182H5.55914C5.99491 17.3182 6.32823 16.9958 6.32823 16.5743V15.3347C6.32823 14.9132 5.99492 14.5908 5.55914 14.5908H4.27739C3.84162 14.5908 3.5083 14.9132 3.5083 15.3347V16.5743C3.50848 16.996 3.84161 17.3182 4.27739 17.3182ZM4.02115 15.3348C4.02115 15.1861 4.12361 15.0868 4.27757 15.0868H5.55932C5.7131 15.0868 5.81574 15.1859 5.81574 15.3348V16.5745C5.81574 16.7233 5.71328 16.8225 5.55932 16.8225H4.27757C4.12379 16.8225 4.02115 16.7234 4.02115 16.5745V15.3348Z" fill="#000000" stroke="#000000" stroke-width="0.25"/>
<path d="M9.14727 17.3182H10.429C10.8648 17.3182 11.1981 16.9958 11.1981 16.5743V15.3347C11.1981 14.9132 10.8648 14.5908 10.429 14.5908H9.14727C8.7115 14.5908 8.37817 14.9132 8.37817 15.3347V16.5743C8.37817 16.996 8.71148 17.3182 9.14727 17.3182ZM8.89085 15.3348C8.89085 15.1861 8.99331 15.0868 9.14727 15.0868H10.429C10.5828 15.0868 10.6854 15.1859 10.6854 15.3348V16.5745C10.6854 16.7233 10.583 16.8225 10.429 16.8225H9.14727C8.99349 16.8225 8.89085 16.7234 8.89085 16.5745V15.3348Z" fill="#000000" stroke="#000000" stroke-width="0.25"/>
<path d="M14.0189 17.3182H15.3006C15.7364 17.3182 16.0697 16.9958 16.0697 16.5743V15.3347C16.0697 14.9132 15.7364 14.5908 15.3006 14.5908H14.0189C13.5831 14.5908 13.2498 14.9132 13.2498 15.3347V16.5743C13.2498 16.996 13.5831 17.3182 14.0189 17.3182ZM13.7626 15.3348C13.7626 15.1861 13.8651 15.0868 14.019 15.0868H15.3008C15.4546 15.0868 15.5572 15.1859 15.5572 15.3348V16.5745C15.5572 16.7233 15.4547 16.8225 15.3008 16.8225H14.019C13.8652 16.8225 13.7626 16.7234 13.7626 16.5745V15.3348Z" fill="#000000" stroke="#000000" stroke-width="0.25"/>
<path d="M13.7627 1.69844V4.17779C13.7627 4.59926 14.096 4.92164 14.5318 4.92164H15.0445C15.4802 4.92164 15.8136 4.59927 15.8136 4.17779L15.8134 1.69844C15.8134 1.27697 15.4801 0.95459 15.0443 0.95459H14.5316C14.0958 0.95459 13.7627 1.27679 13.7627 1.69844H13.7627ZM15.3007 1.69844V4.17779C15.3007 4.32653 15.1982 4.4258 15.0443 4.4258H14.5316C14.3778 4.4258 14.2752 4.3267 14.2752 4.17779L14.2754 1.69844C14.2754 1.54971 14.3778 1.45043 14.5318 1.45043H15.0445C15.1983 1.45043 15.3007 1.54953 15.3007 1.69844Z" fill="#000000" stroke="#000000" stroke-width="0.25"/>
<path d="M5.30299 4.92146C5.73876 4.92146 6.07208 4.59909 6.07208 4.17761V1.69844C6.07208 1.27697 5.73877 0.95459 5.30299 0.95459H4.79033C4.35456 0.95459 4.02124 1.27696 4.02124 1.69844V4.17779C4.02124 4.59926 4.35455 4.92164 4.79033 4.92164L5.30299 4.92146ZM4.53389 4.17779V1.69844C4.53389 1.5497 4.63635 1.45043 4.79032 1.45043H5.30297C5.45675 1.45043 5.55939 1.54953 5.55939 1.69844V4.17779C5.55939 4.32652 5.45693 4.4258 5.30297 4.4258H4.79032C4.63635 4.42562 4.53389 4.32652 4.53389 4.17779Z" fill="#000000" stroke="#000000" stroke-width="0.25"/>
</svg>
