<svg xmlns="http://www.w3.org/2000/svg" width="558.611" height="416.844" viewBox="0 0 558.611 416.844"><defs><style>.a,.c,.d,.e,.f{fill:none;}.a,.c,.f{stroke:#042a2b;}.a,.f{stroke-width:4px;}.b{fill:#8154EF;}.c{stroke-width:3px;}.d,.e{stroke:#8154EF;stroke-miterlimit:10;}.d{stroke-width:6px;}.e{stroke-linecap:round;stroke-width:5px;}.f,.g{fill-rule:evenodd;}.g{fill:#8154EF;}</style></defs><g transform="translate(44.611 74)"><path class="a" d="M71.688,0l-28.3-80.968H30.972L2.668,0h9.86l8.12-23.9H53.36L61.48,0ZM50.924-32.48H22.968L36.656-71.92h.58ZM129.34,0V-8.584H94.888V-80.968H85.144V0Zm58.116,0V-8.584H153V-80.968H143.26V0Zm69.832,1.392c13.456,0,23.316-7.076,28.42-18.444l-7.772-4.872c-3.248,8.816-10.324,14.616-20.648,14.616-13.92,0-22.156-10.092-22.156-26.68V-46.052c0-16.588,8.236-27.608,22.156-27.608,9.976,0,16.7,5.452,19.952,13.8l7.888-4.756c-5.1-11.252-14.384-17.748-27.84-17.748-20.416,0-32.6,15.312-32.6,42.34S236.872,1.392,257.288,1.392ZM300.788,0H310.3V-68.208h.58l6.844,13.572L337.1-19.372l19.372-35.264,6.844-13.572h.58V0H373.4V-80.968H360.876L337.56-37.352h-.58l-23.2-43.616H300.788ZM417.716,1.392c17.4,0,27.84-9.512,27.84-24.36,0-12.064-6.844-19.024-22.62-22.62L416.324-47.1c-10.208-2.32-15.2-5.8-15.2-13.456,0-8.7,6.38-13.224,16.7-13.224,9.4,0,15.544,3.828,19.952,9.976l7.308-5.336C439.06-77.72,430.476-82.36,418.3-82.36c-15.892,0-26.8,7.772-26.8,22.156,0,12.412,8.12,18.908,22.852,22.272l6.612,1.508c10.672,2.436,14.964,6.264,14.964,13.92,0,9.28-6.264,15.312-17.864,15.312-9.4,0-16.124-4.06-21.808-11.6l-7.192,6.032C395.56-3.944,404.724,1.392,417.716,1.392Z" transform="translate(33 332)"/><circle class="b" cx="40" cy="40" r="40" transform="translate(337 11)"/><circle class="b" cx="40" cy="40" r="40" transform="translate(72 71)"/><path class="c" d="M30.6.72V-4.32L9.9-16.38v-.48L30.6-28.92v-5.04L5.4-19.02v4.8ZM40.86,9.06,56.52-44.4H52.2L36.54,9.06ZM64.38.72l25.2-14.94v-4.8L64.38-33.96v5.04l20.7,12.06v.48L64.38-4.32Z" transform="translate(213 188)"/><circle class="d" cx="40" cy="40" r="40" transform="translate(112 -71)"/><path class="e" d="M27.853,148.87,35.1,167.7l7.248,19.1-20.132-3.22L2.35,180.351l12.617-15.875Z" transform="translate(-42.35 152.893)"/><path class="f" d="M502,202.988H468.988v-29.66a10,10,0,0,0-10-10H436.242a185.44,185.44,0,0,0-17.687-42.656l16.1-16.1a10,10,0,0,0,0-14.145l-56.1-56.092a10,10,0,0,0-14.141,0l-16.1,16.1a185.391,185.391,0,0,0-42.652-17.691V10a10,10,0,0,0-10-10h-79.33a10,10,0,0,0-10,10V32.746A185.352,185.352,0,0,0,163.68,50.437l-16.1-16.1a10.008,10.008,0,0,0-14.145,0L77.344,90.429a10,10,0,0,0,0,14.141l16.1,16.1a185.334,185.334,0,0,0-17.691,42.652H53.012a10,10,0,0,0-10,10v29.664H10a10,10,0,0,0,0,20H216a10,10,0,0,0,0-20H172.879a83.718,83.718,0,0,1,166.242,0H296a10,10,0,0,0,0,20H502a10,10,0,0,0,0-20ZM256,109.25a103.886,103.886,0,0,0-103.258,93.738H63.012v-19.66H83.547a10,10,0,0,0,9.75-7.772,165.547,165.547,0,0,1,21.2-51.131,10,10,0,0,0-1.4-12.387L98.558,97.5l41.953-41.95,14.54,14.54a10,10,0,0,0,12.387,1.4A165.618,165.618,0,0,1,218.57,50.281a10,10,0,0,0,7.766-9.746V20h59.328V40.535a10,10,0,0,0,7.766,9.75,165.711,165.711,0,0,1,51.137,21.2,9.993,9.993,0,0,0,12.383-1.4L371.488,55.55,413.441,97.5,398.9,112.039a10,10,0,0,0-1.4,12.387,165.685,165.685,0,0,1,21.2,51.137,10,10,0,0,0,9.746,7.766h20.539v19.664H359.257A103.886,103.886,0,0,0,256,109.25Zm0,0"/><path class="g" d="M266,212.988a10,10,0,1,0-10,10A10,10,0,0,0,266,212.988Zm0,0"/></g></svg>