<svg width="102" height="87" viewBox="0 0 102 87" fill="none" xmlns="http://www.w3.org/2000/svg">
<path d="M48.5808 8.00603L58.1575 16.3226L61.9881 8.00603L49.8409 3.52014C49.4377 5.03224 48.9841 6.54433 48.5808 8.00603Z" fill="#ECECEC"/>
<path d="M69.4475 21.3125L71.1612 33.8629L79.5281 30.1835L73.3789 18.7924L69.4475 21.3125Z" fill="#ECECEC"/>
<path d="M22.9454 12.6683L35.5966 11.8619C34.5885 8.98889 33.5301 6.1159 32.522 3.24292L20.7276 8.58566C21.4635 9.92135 22.2196 11.2822 22.9454 12.6683Z" fill="#ECECEC"/>
<path d="M45.8085 45.4556C45.7783 45.4852 45.7543 45.5205 45.738 45.5594C45.7216 45.5984 45.7132 45.6402 45.7132 45.6824C45.7132 45.7247 45.7216 45.7665 45.738 45.8054C45.7543 45.8444 45.7783 45.8797 45.8085 45.9092C45.8581 45.9653 45.9263 46.0013 46.0006 46.0106C46.0748 46.0198 46.1499 46.0017 46.2117 45.9597L45.8085 45.4556ZM51.1512 41.8266L51.3528 42.0786L51.6048 41.877L51.4032 41.625L51.1512 41.8266ZM47.2198 36.1814C47.1933 36.1483 47.1606 36.1208 47.1234 36.1003C47.0863 36.0799 47.0455 36.067 47.0034 36.0623C46.9183 36.0528 46.833 36.0776 46.7661 36.131C46.6993 36.1845 46.6564 36.2623 46.647 36.3474C46.6375 36.4325 46.6623 36.5178 46.7157 36.5847L47.2198 36.1814ZM46.1613 45.9597L51.3528 42.129L50.9496 41.625L45.7581 45.4556L46.1613 45.9597ZM51.4032 41.6754L47.2198 36.2318L46.7157 36.6351L50.8992 42.0786L51.4032 41.6754Z" fill="#042A2B" stroke="#042A2B" stroke-width="0.5" stroke-miterlimit="10"/>
<path d="M38.5706 44.8508C38.6241 44.9176 38.6488 45.003 38.6393 45.088C38.6299 45.1731 38.587 45.2509 38.5202 45.3044C38.4534 45.3579 38.368 45.3826 38.2829 45.3732C38.1979 45.3637 38.12 45.3208 38.0666 45.254L38.5706 44.8508ZM34.2359 40.1129L33.9839 40.3145L33.7823 40.0625L34.0343 39.8861L34.2359 40.1129ZM39.4274 35.5766C39.4943 35.5231 39.5796 35.4984 39.6647 35.5078C39.7498 35.5173 39.8276 35.5601 39.8811 35.627C39.9345 35.6938 39.9593 35.7792 39.9498 35.8642C39.9404 35.9493 39.8975 36.0271 39.8307 36.0806L39.4274 35.5766ZM38.0666 45.3044L33.9839 40.3145L34.4879 39.9113L38.5706 44.9264L38.0666 45.3044ZM34.0343 39.8861L39.4274 35.6018L39.8307 36.1058L34.4174 40.3901L34.0343 39.8861Z" fill="#042A2B" stroke="#042A2B" stroke-width="0.5" stroke-miterlimit="10"/>
<path d="M47.27 32.5525C47.2909 32.5169 47.3036 32.4771 47.3071 32.436C47.3107 32.3949 47.305 32.3535 47.2905 32.3148C47.276 32.2762 47.2531 32.2413 47.2234 32.2126C47.1937 32.184 47.1579 32.1623 47.1188 32.1493C47.0449 32.1192 46.9623 32.1181 46.8876 32.1461C46.8129 32.1741 46.7515 32.2292 46.7156 32.3005L47.27 32.5525ZM37.391 51.2017C37.3701 51.2373 37.3574 51.2771 37.3539 51.3182C37.3503 51.3593 37.356 51.4007 37.3705 51.4393C37.385 51.478 37.4079 51.5129 37.4376 51.5415C37.4673 51.5702 37.503 51.5918 37.5422 51.6049C37.6228 51.6425 37.7147 51.6478 37.7991 51.6196C37.8835 51.5915 37.9539 51.5321 37.9958 51.4537L37.391 51.2017ZM46.7156 32.2501L37.391 51.2017L37.9454 51.4537L47.27 32.5021L46.7156 32.2501Z" fill="#042A2B" stroke="#042A2B" stroke-width="0.5" stroke-miterlimit="10"/>
<path d="M59.518 62.3408L62.5422 68.9436L50.9999 74.236L47.9757 67.6331L47.7741 67.2299L47.3709 67.2803C44.8944 67.7414 42.3626 67.8264 39.8608 67.5323L39.4576 67.4819L39.3064 67.8851L36.7358 74.6896L24.8406 70.2541L27.3608 63.4497L27.512 63.0464L27.1592 62.7944C25.0937 61.3494 23.2439 59.6185 21.6652 57.6533L21.4132 57.3005L21.01 57.5021L14.4072 60.5263L9.16522 48.9587L15.768 45.9345L16.1713 45.7329L16.1209 45.3297C15.6597 42.8533 15.5748 40.3214 15.8689 37.8196L15.9193 37.4164L15.516 37.2652L8.71159 34.745L13.1471 22.8499L19.9515 25.37L20.3547 25.5212L20.6068 25.1684C22.0517 23.1029 23.7827 21.2532 25.7479 19.6745L26.1007 19.4224L25.8991 19.0192L22.8749 12.4164L34.4172 7.17445L37.4414 13.7773L37.643 14.1805L38.0967 14.1301C40.573 13.6681 43.105 13.5832 45.6068 13.8781L46.0604 13.9285L46.2116 13.5253L48.7318 6.72083L60.6269 11.1563L58.1068 17.9607L57.9555 18.364L58.3084 18.616C60.3738 20.061 62.2236 21.792 63.8023 23.7571L64.1047 24.1099L64.508 23.9083L71.1108 20.8841L76.4031 32.4265L69.8003 35.4507L69.3971 35.6523L69.4979 36.0555C69.9339 38.5346 70.0188 41.0628 69.7499 43.5656L69.6995 44.0192L70.1027 44.1704L76.9072 46.6906L72.4717 58.6362L65.6672 56.116L65.264 55.9648L65.012 56.3176C63.567 58.3831 61.836 60.2329 59.8709 61.8116L59.5685 62.0636L59.518 62.3408ZM29.2257 35.6271C28.229 38.2886 28.0439 41.186 28.6938 43.9527C29.3437 46.7195 30.7995 49.2314 32.877 51.1708C34.9545 53.1102 37.5604 54.39 40.3652 54.8484C43.1701 55.3068 46.0479 54.9232 48.6347 53.7461C51.2215 52.569 53.4012 50.6512 54.8982 48.2353C56.3951 45.8195 57.142 43.0139 57.0445 40.1736C56.947 37.3332 56.0094 34.5855 54.3503 32.278C52.6912 29.9704 50.3852 28.2067 47.7237 27.2097C44.1539 25.8825 40.2038 26.023 36.7373 27.6004C33.2708 29.1778 30.5701 32.0637 29.2257 35.6271V35.6271Z" stroke="#042A2B"/>
<path d="M70.6067 78.4697L73.8829 80.7883L71.6147 82.6028L69.3466 79.2258L70.6067 78.4697Z" fill="#ECECEC"/>
<path d="M76.2015 83.8629L80.1834 83.4597C80.0322 84.4174 79.8306 85.375 79.6793 86.2823L75.7479 85.2742L76.2015 83.8629Z" fill="#ECECEC"/>
<path d="M70.1027 70.3045L70.8084 74.2359L67.9354 73.9335L68.6914 69.9517L70.1027 70.3045Z" fill="#ECECEC"/>
<path d="M87.8954 77.7642L87.8449 77.865C87.5034 78.579 87.0622 79.2408 86.5345 79.8307L86.4337 79.9315L86.4841 80.0323L87.7441 81.8972L84.4175 84.1654L83.1574 82.2501L83.107 82.1493L82.9558 82.1997C82.2084 82.4684 81.4289 82.6379 80.6373 82.7037H80.4861L80.4357 82.8549L79.982 85.1231L76.0506 84.367L76.5042 82.0989L76.5546 81.9476L76.4538 81.8972C75.7398 81.5557 75.078 81.1145 74.4881 80.5868L74.3873 80.486L74.2865 80.5364L72.3712 81.7964L70.1534 78.4698L72.0183 77.2097L72.1191 77.1593L72.0687 77.0081C71.8163 76.2586 71.6638 75.479 71.6151 74.6896V74.5384H71.4639L69.2462 74.0847L70.0022 70.1533L72.2199 70.6069H72.3712L72.4216 70.5061C72.7631 69.7921 73.2043 69.1303 73.732 68.5404L73.8329 68.4396L73.7824 68.3388L72.472 66.4234L75.7986 64.1553L77.0587 66.0706L77.1091 66.1714L77.2603 66.121C78.0077 65.8523 78.7872 65.6828 79.5788 65.617H79.73L79.7804 65.4658L80.2341 63.248L84.1655 64.0041L83.7119 66.2722L83.6615 66.4234L83.8127 66.4739C84.5267 66.8154 85.1885 67.2566 85.7784 67.7843L85.8792 67.8851L85.98 67.8347L87.8954 66.5747L90.1635 69.9013L88.2482 71.1614L88.1474 71.2118L88.1978 71.363C88.4666 72.1104 88.636 72.8899 88.7018 73.6815V73.8327H88.853L91.1212 74.2864L90.3651 78.2178L88.097 77.7642H87.8954ZM76.4034 76.7561C76.9019 77.5014 77.6101 78.0822 78.4385 78.4252C79.2668 78.7682 80.1783 78.8581 81.0577 78.6834C81.9371 78.5087 82.7451 78.0773 83.3795 77.4438C84.0139 76.8102 84.4463 76.0028 84.6221 75.1237C84.798 74.2445 84.7093 73.3329 84.3674 72.5041C84.0255 71.6752 83.4456 70.9663 82.701 70.4668C81.9564 69.9673 81.0805 69.6997 80.1839 69.6977C79.2874 69.6958 78.4103 69.9595 77.6635 70.4557L77.6131 70.5061C76.6313 71.1805 75.9542 72.2139 75.7278 73.3833C75.5015 74.5527 75.7442 75.7641 76.4034 76.7561V76.7561Z" stroke="#042A2B" stroke-width="0.5"/>
<path d="M97.8245 53.4193C99.5782 53.4193 101 51.9976 101 50.2439C101 48.4902 99.5782 47.0685 97.8245 47.0685C96.0708 47.0685 94.6491 48.4902 94.6491 50.2439C94.6491 51.9976 96.0708 53.4193 97.8245 53.4193Z" stroke="#8154EF" stroke-miterlimit="10"/>
<path d="M8.30847 1L7.45161 4.72984L6.59476 8.45968L3.77218 5.83871L1 3.26815L4.62903 2.10887L8.30847 1Z" stroke="#8154EF" stroke-miterlimit="10" stroke-linecap="round"/>
</svg>
