<?xml version="1.0" encoding="UTF-8"?> <svg xmlns="http://www.w3.org/2000/svg" width="476.996" height="123.976" viewBox="0 0 476.996 123.976"><g transform="translate(2.072)"><path d="M16,18.4V31.9H42V47.3H16V73H0V3H42.5V18.4Z"></path><path d="M90,62H64L60.5,73H43L66.8,3H87.2L111,73H93.5ZM85.2,47,77,21.3,68.8,47Z"></path><path d="M176.3,60.9l7,7.4L171.8,78.5l-7.5-7.9a37.32,37.32,0,0,1-16.4,3.81A36.214,36.214,0,1,1,176.3,60.9Zm-23.5-2.6L142.7,47.6l11.5-10.2,11.2,11.9A22.84,22.84,0,0,0,168.3,38c0-12.5-9-20.8-20.4-20.8S127.5,25.5,127.5,38s9,20.8,20.4,20.8a26.26,26.26,0,0,0,4.9-.5Z"></path><path d="M244.6,3V73h-5V61.4a23.69,23.69,0,0,1-21.5,12.7A25.76,25.76,0,0,1,192.2,48a25.76,25.76,0,0,1,25.9-26.1,23.69,23.69,0,0,1,21.5,12.7V3Zm-5,45a21.2,21.2,0,1,0-21.2,21.2A21.2,21.2,0,0,0,239.6,48Z" fill="#ff5745"></path><path d="M258.5,6.9a4,4,0,1,1,4,4A4,4,0,0,1,258.5,6.9ZM260,23h5V73h-5Z"></path><path d="M329.8,23V70.6c0,15-11.1,23.51-24.9,23.51-11.7,0-20-4.7-23.6-12l4.4-2.5c2.6,5.3,8.2,9.7,19.2,9.7,12.5,0,19.9-7.3,19.9-18.71V61.4a23.69,23.69,0,0,1-21.5,12.7A25.76,25.76,0,0,1,277.4,48a25.76,25.76,0,0,1,25.9-26.1,23.69,23.69,0,0,1,21.5,12.7V23Zm-5,25a21.2,21.2,0,1,0-21.2,21.2A21.2,21.2,0,0,0,324.8,48Z"></path><path d="M343.7,6.9a4,4,0,1,1,4,4A4,4,0,0,1,343.7,6.9ZM345.2,23h5V73h-5Z"></path><path d="M376.3,27.9V60.4c0,8.81,4.7,9,14.9,8.1V73c-13.1,2-20-1.2-20-12.6V27.9h-11V23h11V10.5L376.3,9V23h14.9v4.9Z"></path><path d="M449.3,23V73h-5.1V61.7a24,24,0,0,1-21.5,12.4A25.83,25.83,0,0,1,396.79,48,25.83,25.83,0,0,1,422.7,21.9a24,24,0,0,1,21.5,12.4V23Zm-5.1,25a21.15,21.15,0,1,0-21.15,21.15A21.15,21.15,0,0,0,444.2,48Z"></path><path d="M464.7,0h5V73h-5Z"></path><circle cx="5" cy="5" r="5" transform="translate(258 2)" fill="#ff5745"></circle><circle cx="4.5" cy="4.5" r="4.5" transform="translate(258.5 2.5)" fill="none" stroke="#ff5745" stroke-width="1"></circle><circle cx="5" cy="5" r="5" transform="translate(343 2)" fill="#8154ef"></circle><circle cx="4.5" cy="4.5" r="4.5" transform="translate(343.5 2.5)" fill="#ff5745" stroke="#ff5745" stroke-width="1"></circle><circle cx="5" cy="5" r="5" transform="translate(214 43)"></circle><circle cx="4.5" cy="4.5" r="4.5" transform="translate(214.5 43.5)" fill="#ff5745" stroke="#ff5745" stroke-width="1"></circle><g transform="translate(-169.15 -61.224)"><path d="M12.038-18.2h4.056L9.854-7.1V0H6.292V-7.1L.078-18.2H4.134l3.952,7.592ZM29.8-1.612A6.639,6.639,0,0,1,24.908.364,6.639,6.639,0,0,1,20.02-1.612,6.639,6.639,0,0,1,18.044-6.5a6.608,6.608,0,0,1,1.976-4.862,6.65,6.65,0,0,1,4.888-2,6.65,6.65,0,0,1,4.888,2,6.619,6.619,0,0,1,2,4.862A6.65,6.65,0,0,1,29.8-1.612Zm-7.41-2.314a3.424,3.424,0,0,0,2.522,1.014A3.424,3.424,0,0,0,27.43-3.926,3.488,3.488,0,0,0,28.444-6.5,3.488,3.488,0,0,0,27.43-9.074a3.424,3.424,0,0,0-2.522-1.014,3.424,3.424,0,0,0-2.522,1.014A3.593,3.593,0,0,0,21.4-6.5,3.593,3.593,0,0,0,22.386-3.926Zm24-2.054V-13h3.354V0H46.384V-1.456A4.291,4.291,0,0,1,42.51.364a4.749,4.749,0,0,1-3.536-1.43A5.515,5.515,0,0,1,37.6-5.018V-13H40.95v7.566a2.7,2.7,0,0,0,.689,1.976,2.52,2.52,0,0,0,1.885.7,2.729,2.729,0,0,0,2.093-.819A3.4,3.4,0,0,0,46.384-5.98ZM59.8-13v2.236a3.464,3.464,0,0,1,1.508-1.859,4.672,4.672,0,0,1,2.444-.637v3.744A3.821,3.821,0,0,0,61-8.892a2.991,2.991,0,0,0-1.2,2.678V0H56.446V-13ZM88.27.364a9.158,9.158,0,0,1-6.786-2.73A9.186,9.186,0,0,1,78.806-9.1a9.131,9.131,0,0,1,2.678-6.734,9.158,9.158,0,0,1,6.786-2.73,9.277,9.277,0,0,1,4.563,1.157A8.471,8.471,0,0,1,96.1-14.274L93-12.48a4.8,4.8,0,0,0-1.924-1.911,5.712,5.712,0,0,0-2.808-.689,5.752,5.752,0,0,0-4.29,1.664A6,6,0,0,0,82.368-9.1,5.965,5.965,0,0,0,83.98-4.81a5.752,5.752,0,0,0,4.29,1.664,5.786,5.786,0,0,0,2.821-.689A4.658,4.658,0,0,0,93-5.72L96.1-3.926A8.471,8.471,0,0,1,92.833-.793,9.277,9.277,0,0,1,88.27.364ZM116.064-18.2h3.692V0h-3.562V-11.8l-5.122,8.45h-.416l-5.122-8.424V0h-3.588V-18.2h3.692l5.226,8.606ZM132.7.364a8.147,8.147,0,0,1-4.524-1.2,6.528,6.528,0,0,1-2.626-3.3l3.068-1.794a4.088,4.088,0,0,0,4.186,2.782,3.76,3.76,0,0,0,2.184-.52,1.638,1.638,0,0,0,.728-1.4,1.641,1.641,0,0,0-.858-1.482,12.73,12.73,0,0,0-3.068-1.17,13.527,13.527,0,0,1-3.77-1.69,4.37,4.37,0,0,1-1.716-3.744,4.805,4.805,0,0,1,1.742-3.926,6.319,6.319,0,0,1,4.238-1.482,7.107,7.107,0,0,1,3.874,1.066,7.1,7.1,0,0,1,2.626,3.016l-3.016,1.742a3.633,3.633,0,0,0-3.484-2.34,2.757,2.757,0,0,0-1.742.507,1.59,1.59,0,0,0-.65,1.313,1.7,1.7,0,0,0,.7,1.4,10.516,10.516,0,0,0,2.756,1.144l1.248.416q.338.1,1.17.442a5.06,5.06,0,0,1,1.144.546A4.573,4.573,0,0,1,138.632-7.7a4.791,4.791,0,0,1,.676,2.574,4.865,4.865,0,0,1-1.846,4A7.363,7.363,0,0,1,132.7.364ZM155.428-18.2h7.228a8.253,8.253,0,0,1,6.24,2.626A8.931,8.931,0,0,1,171.418-9.1,8.931,8.931,0,0,1,168.9-2.626,8.253,8.253,0,0,1,162.656,0h-7.228Zm3.588,14.768h3.64a5.068,5.068,0,0,0,3.848-1.56A5.834,5.834,0,0,0,167.986-9.1a5.683,5.683,0,0,0-1.482-4.082,5.026,5.026,0,0,0-3.848-1.586h-3.64Zm31.07-1.69h-9.8q.65,2.444,3.666,2.444a3.43,3.43,0,0,0,2.912-1.3l2.7,1.56A6.448,6.448,0,0,1,183.9.364a6.994,6.994,0,0,1-5.174-1.95,6.662,6.662,0,0,1-1.95-4.914,6.733,6.733,0,0,1,1.924-4.888,6.541,6.541,0,0,1,4.94-1.976,6.106,6.106,0,0,1,4.706,1.976A6.835,6.835,0,0,1,190.216-6.5,9.245,9.245,0,0,1,190.086-5.122Zm-9.854-2.6h6.63a3.275,3.275,0,0,0-1.157-1.95,3.272,3.272,0,0,0-2.067-.676,3.528,3.528,0,0,0-2.236.689A3.293,3.293,0,0,0,180.232-7.722ZM201.058-3.9,204.23-13h3.692l-4.94,13H199.16l-4.94-13h3.692ZM225.29-5.122h-9.8q.65,2.444,3.666,2.444a3.43,3.43,0,0,0,2.912-1.3l2.7,1.56A6.448,6.448,0,0,1,219.1.364a6.994,6.994,0,0,1-5.174-1.95,6.662,6.662,0,0,1-1.95-4.914,6.733,6.733,0,0,1,1.924-4.888,6.541,6.541,0,0,1,4.94-1.976,6.106,6.106,0,0,1,4.706,1.976A6.835,6.835,0,0,1,225.42-6.5,9.245,9.245,0,0,1,225.29-5.122Zm-9.854-2.6h6.63a3.275,3.275,0,0,0-1.157-1.95,3.272,3.272,0,0,0-2.067-.676,3.528,3.528,0,0,0-2.236.689A3.293,3.293,0,0,0,215.436-7.722ZM234.754,0H231.4V-18.98h3.354Zm17.784-1.612A6.639,6.639,0,0,1,247.65.364a6.639,6.639,0,0,1-4.888-1.976A6.639,6.639,0,0,1,240.786-6.5a6.608,6.608,0,0,1,1.976-4.862,6.65,6.65,0,0,1,4.888-2,6.65,6.65,0,0,1,4.888,2,6.619,6.619,0,0,1,2,4.862A6.65,6.65,0,0,1,252.538-1.612Zm-7.41-2.314a3.424,3.424,0,0,0,2.522,1.014,3.424,3.424,0,0,0,2.522-1.014A3.488,3.488,0,0,0,251.186-6.5a3.488,3.488,0,0,0-1.014-2.574,3.424,3.424,0,0,0-2.522-1.014,3.424,3.424,0,0,0-2.522,1.014A3.593,3.593,0,0,0,244.14-6.5,3.593,3.593,0,0,0,245.128-3.926Zm22.984-9.438a5.861,5.861,0,0,1,4.472,2A6.859,6.859,0,0,1,274.456-6.5a6.834,6.834,0,0,1-1.872,4.888A5.843,5.843,0,0,1,268.112.364a5.032,5.032,0,0,1-4.212-1.9V5.2h-3.354V-13H263.9v1.534A5.032,5.032,0,0,1,268.112-13.364Zm-3.2,9.516a3.488,3.488,0,0,0,2.574,1.014,3.487,3.487,0,0,0,2.574-1.014A3.592,3.592,0,0,0,271.1-6.5a3.506,3.506,0,0,0-1.04-2.626,3.442,3.442,0,0,0-2.574-1.04,3.442,3.442,0,0,0-2.574,1.04A3.553,3.553,0,0,0,263.9-6.5,3.642,3.642,0,0,0,264.914-3.848Zm29.926-9.516a4.622,4.622,0,0,1,3.575,1.456,5.536,5.536,0,0,1,1.339,3.9V0H296.4V-7.774a2.664,2.664,0,0,0-.572-1.82,2.034,2.034,0,0,0-1.612-.65,2.2,2.2,0,0,0-1.781.754,3.3,3.3,0,0,0-.637,2.184V0h-3.354V-7.774a2.664,2.664,0,0,0-.572-1.82,2.034,2.034,0,0,0-1.612-.65,2.235,2.235,0,0,0-1.781.767,3.219,3.219,0,0,0-.663,2.171V0h-3.354V-13h3.354v1.378a4.049,4.049,0,0,1,3.614-1.742,3.817,3.817,0,0,1,3.536,1.872A4.367,4.367,0,0,1,294.84-13.364Zm24.05,8.242h-9.8q.65,2.444,3.666,2.444a3.43,3.43,0,0,0,2.912-1.3l2.7,1.56A6.448,6.448,0,0,1,312.7.364a6.994,6.994,0,0,1-5.174-1.95,6.662,6.662,0,0,1-1.95-4.914,6.733,6.733,0,0,1,1.924-4.888,6.541,6.541,0,0,1,4.94-1.976,6.106,6.106,0,0,1,4.706,1.976A6.835,6.835,0,0,1,319.02-6.5,9.248,9.248,0,0,1,318.89-5.122Zm-9.854-2.6h6.63a3.275,3.275,0,0,0-1.157-1.95,3.272,3.272,0,0,0-2.067-.676,3.528,3.528,0,0,0-2.236.689A3.293,3.293,0,0,0,309.036-7.722Zm23.192-5.642a4.611,4.611,0,0,1,3.51,1.43,5.454,5.454,0,0,1,1.4,3.952V0h-3.354V-7.566a2.7,2.7,0,0,0-.689-1.976,2.52,2.52,0,0,0-1.885-.7,2.728,2.728,0,0,0-2.093.819,3.4,3.4,0,0,0-.767,2.4V0H325V-13h3.354v1.456A4.291,4.291,0,0,1,332.228-13.364Zm18.85.364v3.224H348.14v5.408a1.286,1.286,0,0,0,.338.988,1.552,1.552,0,0,0,.988.351,14.558,14.558,0,0,0,1.612-.013V0q-3.406.39-4.849-.637t-1.443-3.731V-9.776h-2.262V-13h2.262v-2.626l3.354-1.014V-13Zm16.51-5.2h6.786a6.108,6.108,0,0,1,4.42,1.768,5.859,5.859,0,0,1,1.794,4.342,5.859,5.859,0,0,1-1.794,4.342,6.108,6.108,0,0,1-4.42,1.768h-3.2V0h-3.588Zm3.588,8.866h3.2a2.508,2.508,0,0,0,1.9-.793,2.739,2.739,0,0,0,.754-1.963,2.727,2.727,0,0,0-.754-1.976,2.529,2.529,0,0,0-1.9-.78h-3.2Zm24.258-2.132V-13h3.354V0h-3.354V-1.534A5.1,5.1,0,0,1,391.2.364a5.948,5.948,0,0,1-4.472-1.976A6.947,6.947,0,0,1,384.878-6.5a6.913,6.913,0,0,1,1.846-4.862,5.914,5.914,0,0,1,4.472-2A5.1,5.1,0,0,1,395.434-11.466Zm-6.188,7.618a3.487,3.487,0,0,0,2.574,1.014,3.488,3.488,0,0,0,2.574-1.014,3.592,3.592,0,0,0,1.04-2.652,3.506,3.506,0,0,0-1.04-2.626,3.442,3.442,0,0,0-2.574-1.04,3.442,3.442,0,0,0-2.574,1.04A3.553,3.553,0,0,0,388.232-6.5,3.642,3.642,0,0,0,389.246-3.848ZM408.824-13v2.236a3.464,3.464,0,0,1,1.508-1.859,4.672,4.672,0,0,1,2.444-.637v3.744a3.82,3.82,0,0,0-2.756.624,2.991,2.991,0,0,0-1.2,2.678V0H405.47V-13Zm17.342,0v3.224h-2.938v5.408a1.286,1.286,0,0,0,.338.988,1.552,1.552,0,0,0,.988.351,14.558,14.558,0,0,0,1.612-.013V0q-3.406.39-4.849-.637t-1.443-3.731V-9.776h-2.262V-13h2.262v-2.626l3.354-1.014V-13Zm13.442-.364a4.611,4.611,0,0,1,3.51,1.43,5.454,5.454,0,0,1,1.4,3.952V0h-3.354V-7.566a2.7,2.7,0,0,0-.689-1.976,2.52,2.52,0,0,0-1.885-.7,2.728,2.728,0,0,0-2.093.819,3.4,3.4,0,0,0-.767,2.4V0H432.38V-13h3.354v1.456A4.291,4.291,0,0,1,439.608-13.364Zm24.05,8.242h-9.8q.65,2.444,3.666,2.444a3.43,3.43,0,0,0,2.912-1.3l2.7,1.56A6.448,6.448,0,0,1,457.47.364a6.994,6.994,0,0,1-5.174-1.95,6.662,6.662,0,0,1-1.95-4.914,6.733,6.733,0,0,1,1.924-4.888,6.541,6.541,0,0,1,4.94-1.976,6.106,6.106,0,0,1,4.706,1.976A6.835,6.835,0,0,1,463.788-6.5,9.248,9.248,0,0,1,463.658-5.122Zm-9.854-2.6h6.63a3.275,3.275,0,0,0-1.157-1.95,3.272,3.272,0,0,0-2.067-.676,3.528,3.528,0,0,0-2.236.689A3.293,3.293,0,0,0,453.8-7.722ZM473.122-13v2.236a3.464,3.464,0,0,1,1.508-1.859,4.672,4.672,0,0,1,2.444-.637v3.744a3.82,3.82,0,0,0-2.756.624,2.991,2.991,0,0,0-1.2,2.678V0h-3.354V-13Z" transform="translate(167 180)"></path></g></g></svg> 