<svg xmlns="http://www.w3.org/2000/svg" viewBox="0 0 201.36 183.99"><defs><style>.cls-1,.cls-2,.cls-4,.cls-5,.cls-6,.cls-7{fill:none;stroke-miterlimit:10;}.cls-1,.cls-2{stroke:#8154EF;stroke-width:2.54px;}.cls-2,.cls-4,.cls-6,.cls-7{stroke-linecap:round;}.cls-3{fill:#8154EF;}.cls-4,.cls-5,.cls-6{stroke:#042a2b;}.cls-4,.cls-5{stroke-width:2px;}.cls-7{stroke:#04292a;stroke-width:1.13px;}</style></defs><title>Get reliable Developers</title><g id="Layer_2" data-name="Layer 2"><g id="Layer_1-2" data-name="Layer 1"><circle class="cls-1" cx="181.75" cy="7.64" r="6.3"/><polygon class="cls-2" points="11.85 160.94 14.55 167.94 17.25 175.03 9.75 173.84 2.35 172.63 7.05 166.74 11.85 160.94"/><path class="cls-3" d="M122.28,154.37a27.17,27.17,0,0,1-15.3,24.4,1.43,1.43,0,0,1-1.9-.8,1.27,1.27,0,0,1-.1-.6,16.26,16.26,0,0,0-2.8-9.3,8.28,8.28,0,0,0-6.7-3.8c-5.2,0-9.5,5.8-9.5,13.1a1.45,1.45,0,0,1-1.4,1.5,1.27,1.27,0,0,1-.6-.1,27.15,27.15,0,0,1-15.3-26.1,3.4,3.4,0,0,1,.1-1,20.38,20.38,0,0,1,6.3-13.2h0v3.7a20.45,20.45,0,1,0,40.9.1v-3.7a20.85,20.85,0,0,1,6.3,13.3A20.85,20.85,0,0,0,122.28,154.37Z"/><g id="Layer_1-2-2" data-name="Layer 1-2"><path class="cls-4" d="M66.65,143.64a40.09,40.09,0,0,0-27,38v1.2h95.2"/><path class="cls-5" d="M116.15,127.94a10.7,10.7,0,0,1,1.6,1.4,22.21,22.21,0,0,1,6.8,14.3,28.25,28.25,0,0,1,.2,2.9,29.21,29.21,0,0,1-16.6,26.3,1.66,1.66,0,0,1-2.1-.8,1.27,1.27,0,0,1-.1-.6h0c0-7.8-4.7-14.1-10.3-14.1s-10.3,6.3-10.3,14.1h0a1.58,1.58,0,0,1-1.6,1.6,1.27,1.27,0,0,1-.6-.1,29.09,29.09,0,0,1-16.5-28.1,4.1,4.1,0,0,1,.1-1.1,22,22,0,0,1,6.8-14.2,11.51,11.51,0,0,1,1.7-1.4"/><path class="cls-5" d="M117.65,126.94v6.4a21.51,21.51,0,0,1-1.6,8.3,22.11,22.11,0,0,1-42.6-8.3v-6.4"/><path class="cls-5" d="M142.85,72.54h-7.8v-6a28.53,28.53,0,0,0-10.5-22,6,6,0,0,0-7-.4,42.6,42.6,0,0,1-43.6,0,6.18,6.18,0,0,0-7,.4,27.92,27.92,0,0,0-10.5,22v6h-7.8a15.73,15.73,0,0,0-3.6,11,15.57,15.57,0,0,0,3.3,8.2h8.1v3.7a37.73,37.73,0,0,0,37.7,37.7h3.3a37.73,37.73,0,0,0,37.7-37.7v-3.7h8.1a15.52,15.52,0,0,0,3-8.3A17.66,17.66,0,0,0,142.85,72.54Z"/><path class="cls-4" d="M146.45,74.24c12.6-18,14.3-36.1,6.5-43.8a16.44,16.44,0,0,0-10.5-4.3A44.5,44.5,0,0,0,125.15,6c-11.7-7.2-24.2-5.2-41.5-3-14.7,2-22.2,3.4-26.8,6.8-13.8,10.3-15.8,35.6-7.8,62.8"/></g><rect class="cls-3" x="143.79" y="159.05" width="3.5" height="14" rx="1.5"/><rect class="cls-3" x="194.78" y="126.04" width="1.98" height="9" rx="0.99" transform="translate(317.49 -70.83) rotate(87.46)"/><rect class="cls-3" x="190.78" y="115.04" width="1.98" height="9" rx="0.99" transform="translate(140.7 -100.59) rotate(45)"/><rect class="cls-3" x="180.78" y="108.04" width="1.98" height="9" rx="0.99"/><rect class="cls-3" x="166.78" y="114.04" width="1.98" height="9" rx="0.99" transform="translate(-34.68 153.35) rotate(-45)"/><rect class="cls-3" x="163.78" y="126.04" width="1.98" height="9" rx="0.99" transform="translate(34.23 295.31) rotate(-90)"/><path class="cls-6" d="M148.43,155.15a1.42,1.42,0,1,0,1.41,1.42A1.42,1.42,0,0,0,148.43,155.15Zm0,5.67a1.41,1.41,0,0,0-1.42,1.42v11.33a1.42,1.42,0,1,0,2.83,0V162.24A1.41,1.41,0,0,0,148.43,160.82Zm0,0a1.41,1.41,0,0,0-1.42,1.42v11.33a1.42,1.42,0,1,0,2.83,0V162.24A1.41,1.41,0,0,0,148.43,160.82Zm0-2.83a1.42,1.42,0,1,0-1.42-1.42A1.42,1.42,0,0,0,148.43,158Zm52.43-5.67a5.67,5.67,0,0,0-5.67-5.67H184.61a35.74,35.74,0,0,0,2.18-13.53c0-.84-.06-1.33-.1-1.63a5.67,5.67,0,0,0-11.34.14V133c0,9-11.51,14-20.19,16.16a4.27,4.27,0,0,0-3.9-2.55H137.09a1.42,1.42,0,0,0-1.42,1.42v34a1.42,1.42,0,0,0,1.42,1.41h49.6a5.66,5.66,0,0,0,4.71-8.82,5.68,5.68,0,0,0,2.84-8.5,5.66,5.66,0,0,0,2.83-8.5A5.67,5.67,0,0,0,200.86,152.32ZM178.19,133v-1.41a2.84,2.84,0,0,1,5.67,0h0m7.08-1.42a1.43,1.43,0,0,0,1.42,1.42H198a1.42,1.42,0,0,0,0-2.84h-5.67A1.43,1.43,0,0,0,190.94,130.21Zm-.9-7,4-4a1.42,1.42,0,1,0-2-2l-4,4a1.41,1.41,0,0,0,2,2Zm-9-2.9a1.43,1.43,0,0,0,1.42-1.42v-6.52a1.42,1.42,0,1,0-2.84,0v6.52A1.43,1.43,0,0,0,181,120.29Zm-9,2.9a1.42,1.42,0,1,0,2-2l-4-4a1.42,1.42,0,0,0-2,2Zm-8,8.44h5.66a1.42,1.42,0,0,0,0-2.84H164a1.42,1.42,0,0,0,0,2.84Zm-15.59,29.19a1.41,1.41,0,0,0-1.42,1.42v11.33a1.42,1.42,0,1,0,2.83,0V162.24A1.41,1.41,0,0,0,148.43,160.82Zm0-5.67a1.42,1.42,0,1,0,1.41,1.42A1.42,1.42,0,0,0,148.43,155.15Z"/><path class="cls-7" d="M124.77,145.2l10,6.85"/></g></g></svg>