<svg xmlns="http://www.w3.org/2000/svg" width="63" height="63" viewBox="0 0 63 63">
    <g fill="none" fill-rule="evenodd" transform="translate(.775 1)">
        <path fill="#000" fill-rule="nonzero" d="M38.186 49.577c1.451.952 3.216 1.748 5.387 1.748 2.255 0 3.472-.9 3.472-2.208 0-3.185-9.176-2.622-9.176-7.087 0-2.415 2.375-3.924 5.704-3.924 2.021-.054 3.972.666 5.354 1.976l-1.275 1.26c-1.302-.924-2.343-1.463-4.252-1.463-1.91 0-3.156.82-3.156 2.104 0 2.825 9.173 2.287 9.173 6.988 0 2.464-2.488 4.133-6.134 4.133-2.271-.04-4.462-.754-6.222-2.03l1.125-1.497zm4.422-14.83h1.736v4.13h-1.736v-4.13zm1.736 17.59v4.445h-1.736v-4.445h1.736z"/>
        <rect width="38.777" height="5.874" x=".253" y=".071" stroke="#000" stroke-width="1.179" rx="1.388"/>
        <rect width="38.777" height="5.874" x="11.886" y="6.534" stroke="#000" stroke-width="1.179" rx="1.388"/>
        <rect width="38.777" height="5.874" x="2.617" y="12.997" stroke="#000" stroke-width="1.179" rx="1.388"/>
        <rect width="38.777" height="5.874" x="2.689" y="19.1" stroke="#000" stroke-width="1.179" rx="1.388"/>
        <path stroke="#000" stroke-width=".786" d="M37.543 31.03H4.108c-.784 0-1.419-.564-1.419-1.259v-3.36c.002-.694.637-1.255 1.419-1.255h35.94c.781 0 1.416.561 1.418 1.255v3.36a1.17 1.17 0 0 1-.096.457"/>
        <path stroke="#000" stroke-width="1.179" d="M28.917 37.093H4.108c-.784 0-1.419-.563-1.419-1.259v-3.377c0-.696.635-1.26 1.419-1.26h32.913M28.917 37.093H4.273c-.784 0-1.42.564-1.42 1.26v3.356c0 .695.636 1.259 1.42 1.259H26.32"/>
        <path stroke="#000" stroke-width="1.179" d="M26.477 48.831H4.273c-.784 0-1.42-.563-1.42-1.259v-3.345c0-.696.636-1.26 1.42-1.26H26.32"/>
        <ellipse cx="43.854" cy="45.379" stroke="#000" stroke-linecap="round" stroke-width="1.179" rx="17.377" ry="15.419"/>
    </g>
</svg>
