<svg xmlns="http://www.w3.org/2000/svg" viewBox="0 0 226.73 103.75"><defs><style>.cls-1{fill:#7a2682;}.cls-2{fill:none;}</style></defs><g id="Layer_2" data-name="Layer 2"><g id="Layer_1-2" data-name="Layer 1"><path class="cls-1" d="M67.62,37.08a2.09,2.09,0,1,0,1.44,3.6,2.1,2.1,0,0,0,0-3,2.08,2.08,0,0,0-1.44-.58"/><path class="cls-1" d="M64.9,47.11h1.3V67.76a3.52,3.52,0,0,1-.2,1.18,2.89,2.89,0,0,1-.55.92,2.4,2.4,0,0,1-.78.6,1.8,1.8,0,0,1-.85.2h-1.1v3.5h1.1a5.4,5.4,0,0,0,2.34-.52,5.61,5.61,0,0,0,1.89-1.41,6.55,6.55,0,0,0,1.22-2,7.19,7.19,0,0,0,.43-2.46V43.61H64.9Z"/><path class="cls-1" d="M77.73,49.81A2.66,2.66,0,0,1,78,48.68a2.82,2.82,0,0,1,.62-.92,3,3,0,0,1,.92-.62,2.87,2.87,0,0,1,2.25,0,2.91,2.91,0,0,1,.93.62,2.88,2.88,0,0,1,.62.91,2.67,2.67,0,0,1,.23,1.1.76.76,0,0,1-.29.68,4.75,4.75,0,0,1-1.14.67l-.68.25-.37.14c-.48.19-1,.38-1.59.59l-1.73.65Zm7.43-4.53a6.42,6.42,0,0,0-2-1.36,6.4,6.4,0,0,0-8.91,5.89V59.1a6.22,6.22,0,0,0,.51,2.51,6.41,6.41,0,0,0,1.36,2,6.59,6.59,0,0,0,2,1.36,6.55,6.55,0,0,0,5,0,6.33,6.33,0,0,0,3.38-3.39A6.39,6.39,0,0,0,87,59.1V58H83.53V59.1a2.82,2.82,0,0,1-.23,1.13,3,3,0,0,1-.62.93,2.91,2.91,0,0,1-.93.62,3,3,0,0,1-2.25,0,3,3,0,0,1-.92-.62,2.71,2.71,0,0,1-.62-.93,2.66,2.66,0,0,1-.23-1.13V56.53l.73-.28,1.85-.71c.66-.24,1.28-.48,1.84-.7s.91-.36,1.12-.43h0C86.38,53.26,87,51.28,87,49.81v0a6.3,6.3,0,0,0-.5-2.47,6.42,6.42,0,0,0-1.36-2"/><path class="cls-1" d="M100.85,59.1a2.66,2.66,0,0,1-.23,1.13,2.86,2.86,0,0,1-.62.93,3,3,0,0,1-.92.62A2.81,2.81,0,0,1,98,62a2.85,2.85,0,0,1-1.13-.22,3,3,0,0,1-.92-.62,3,3,0,0,1-.62-.93,2.82,2.82,0,0,1-.23-1.13V49.81a2.82,2.82,0,0,1,.23-1.13,2.9,2.9,0,0,1,1.54-1.54A2.89,2.89,0,0,1,98,46.91a2.82,2.82,0,0,1,1.13.23,2.87,2.87,0,0,1,.92.62,2.82,2.82,0,0,1,.62.92,2.66,2.66,0,0,1,.23,1.13Zm1.63-13.82a6.42,6.42,0,0,0-2-1.36A6.22,6.22,0,0,0,98,43.41a6.31,6.31,0,0,0-2.67.58l-.23.11v-.49h-3.5V74.16h3.5V64.79l.21.11a6.16,6.16,0,0,0,2.69.6,6.39,6.39,0,0,0,2.51-.5,6.59,6.59,0,0,0,2-1.36,6.41,6.41,0,0,0,1.36-2,6.22,6.22,0,0,0,.51-2.51V49.81a6.41,6.41,0,0,0-1.87-4.53"/><path class="cls-1" d="M112.38,49.81a2.81,2.81,0,0,1,.22-1.13,3,3,0,0,1,.62-.92,2.91,2.91,0,0,1,.93-.62,2.87,2.87,0,0,1,2.25,0A2.9,2.9,0,0,1,118,48.67a2.67,2.67,0,0,1,.22,1.1.76.76,0,0,1-.29.68,4.52,4.52,0,0,1-1.13.67l-.68.25-.37.14-1.59.59-1.73.65Zm7.43-4.53a6.46,6.46,0,0,0-2-1.36,6.44,6.44,0,0,0-7,1.36,6.35,6.35,0,0,0-1.86,4.53V59.1a6.39,6.39,0,0,0,.5,2.51A6.3,6.3,0,0,0,112.77,65a6.53,6.53,0,0,0,5,0,6.3,6.3,0,0,0,3.39-3.39,6.39,6.39,0,0,0,.5-2.51V58h-3.5V59.1a2.81,2.81,0,0,1-.22,1.13,2.85,2.85,0,0,1-1.55,1.55,3,3,0,0,1-2.25,0,2.91,2.91,0,0,1-.93-.62,3,3,0,0,1-.62-.93,2.81,2.81,0,0,1-.22-1.13V56.53l.72-.28,1.86-.71c.66-.24,1.28-.48,1.83-.7s.92-.36,1.13-.43h0c3.08-1.14,3.72-3.12,3.72-4.59v0a6.3,6.3,0,0,0-.5-2.47,6.42,6.42,0,0,0-1.36-2"/><path class="cls-1" d="M132.6,62a2.81,2.81,0,0,1-1.13-.22,3,3,0,0,1-.92-.62,2.71,2.71,0,0,1-.62-.93,2.66,2.66,0,0,1-.23-1.13V49.81a2.9,2.9,0,0,1,.85-2.05,2.82,2.82,0,0,1,.92-.62,2.87,2.87,0,0,1,2.25,0,2.76,2.76,0,0,1,.93.62,3,3,0,0,1,.62.92,2.85,2.85,0,0,1,.23,1.13V59.1a2.82,2.82,0,0,1-.23,1.13,3,3,0,0,1-.62.93,2.91,2.91,0,0,1-.93.62,2.8,2.8,0,0,1-1.12.22m2.9-17.9-.23-.11a6.38,6.38,0,0,0-2.67-.58,6.22,6.22,0,0,0-2.51.51,6.42,6.42,0,0,0-2,1.36,6.41,6.41,0,0,0-1.87,4.53V59.1a6.22,6.22,0,0,0,.51,2.51,6.34,6.34,0,0,0,5.89,3.89,6.16,6.16,0,0,0,2.69-.6l.21-.11v.51H139V34.75H135.5Z"/><path class="cls-1" d="M149.92,62a2.85,2.85,0,0,1-1.13-.22,3,3,0,0,1-.92-.62,3,3,0,0,1-.62-.93A2.82,2.82,0,0,1,147,59.1V49.81a2.82,2.82,0,0,1,.23-1.13,3,3,0,0,1,.62-.92,2.82,2.82,0,0,1,.92-.62,2.72,2.72,0,0,1,1.13-.23,2.66,2.66,0,0,1,1.13.23,2.9,2.9,0,0,1,1.54,1.54,2.66,2.66,0,0,1,.23,1.13V59.1a2.66,2.66,0,0,1-.23,1.13,2.86,2.86,0,0,1-.62.93,3,3,0,0,1-.92.62,2.81,2.81,0,0,1-1.13.22m2.9-17.9L152.6,44a6.39,6.39,0,0,0-2.68-.58,6.41,6.41,0,0,0-4.53,1.87,6.42,6.42,0,0,0-1.36,2,6.25,6.25,0,0,0-.5,2.51V59.1a6.22,6.22,0,0,0,.5,2.51,6.58,6.58,0,0,0,1.36,2,6.35,6.35,0,0,0,4.53,1.86,6.16,6.16,0,0,0,2.69-.6l.21-.11v.51h3.5V34.75h-3.5Z"/><path class="cls-1" d="M170.14,59.1a2.81,2.81,0,0,1-.22,1.13,2.85,2.85,0,0,1-1.55,1.55,3,3,0,0,1-2.25,0,2.91,2.91,0,0,1-.93-.62,3,3,0,0,1-.62-.93,2.81,2.81,0,0,1-.22-1.13V49.81a2.81,2.81,0,0,1,.22-1.13,3,3,0,0,1,.62-.92,2.76,2.76,0,0,1,.93-.62,2.87,2.87,0,0,1,2.25,0,2.91,2.91,0,0,1,.93.62,3,3,0,0,1,.62.92,2.81,2.81,0,0,1,.22,1.13Zm3-11.8a6.42,6.42,0,0,0-1.36-2,6.35,6.35,0,0,0-2-1.36,6.44,6.44,0,0,0-7,1.36,6.35,6.35,0,0,0-1.86,4.53V59.1a6.39,6.39,0,0,0,.5,2.51A6.3,6.3,0,0,0,164.74,65a6.53,6.53,0,0,0,5,0,6.3,6.3,0,0,0,3.39-3.39,6.39,6.39,0,0,0,.5-2.51V49.81a6.43,6.43,0,0,0-.5-2.51"/><rect class="cls-2" width="226.73" height="103.75"/></g></g></svg>