<svg xmlns="http://www.w3.org/2000/svg" viewBox="0 0 210.85 207.21"><defs><style>.cls-1{fill:#8154EF;}.cls-2,.cls-3,.cls-4,.cls-5,.cls-6,.cls-7{fill:none;}.cls-2,.cls-3{stroke:#8154EF;stroke-miterlimit:10;stroke-width:2.54px;}.cls-3,.cls-7{stroke-linecap:round;}.cls-4,.cls-5,.cls-6,.cls-7{stroke:#042a2b;}.cls-4{stroke-width:2.44px;}.cls-5{stroke-width:2.36px;}.cls-6,.cls-7{stroke-width:2px;}</style></defs><title>No Guess work</title><g id="Layer_2" data-name="Layer 2"><g id="Layer_1-2" data-name="Layer 1"><polygon class="cls-1" points="104.62 132.49 117.31 194.71 134.11 132.49 104.62 132.49"/><circle class="cls-2" cx="188.75" cy="7.57" r="6.3"/><polygon class="cls-3" points="11.85 185.87 14.55 192.87 17.25 199.97 9.75 198.77 2.35 197.57 7.05 191.67 11.85 185.87"/><path class="cls-4" d="M71,131.71h74.59a27.73,27.73,0,0,1,27.73,27.73V206a0,0,0,0,1,0,0h-130a0,0,0,0,1,0,0V159.43A27.73,27.73,0,0,1,71,131.71Z"/><polygon class="cls-5" points="89.39 131.71 105.72 201.49 127.34 131.71 89.39 131.71"/><path class="cls-6" d="M154.38,65.28c-1.75-11.93-17-19.26-29.29-17.9-11,1.22-17.76,9.18-19.53,11.39a30.61,30.61,0,0,0-15.29-5.13,24.08,24.08,0,0,0-6.62.46A22.43,22.43,0,0,0,69.18,87.46a18.54,18.54,0,0,0,26.43,25.78,22.43,22.43,0,0,0,31.62-.57A18.53,18.53,0,0,0,153,91.78a18.62,18.62,0,0,0-5.08-9.18C149.66,80.66,155.61,73.66,154.38,65.28Z"/><path class="cls-1" d="M210.8,60.22c-.46-3.18-4.52-5.13-7.8-4.77a8.05,8.05,0,0,0-5.2,3,8.16,8.16,0,0,0-4.08-1.37,6.72,6.72,0,0,0-1.76.12,6,6,0,0,0-3.86,8.89A4.94,4.94,0,0,0,193,74.06,5,5,0,0,0,195.15,73a6,6,0,0,0,5.42,1.52,5.89,5.89,0,0,0,3-1.68,4.88,4.88,0,0,0,3.1.33,4.93,4.93,0,0,0,2.4-8.34A6,6,0,0,0,210.8,60.22Z"/><path class="cls-7" d="M100.29,76.49a14,14,0,0,1,6-6c4.14-2.06,10.9-2.59,15,2,3.66,4.09,3.79,10.7,1,14-3.48,4.11-10.84,2.26-12,6,0,.12,0,.06,0,5v2"/><circle class="cls-7" cx="110.29" cy="105.49" r="2.5"/><path class="cls-6" d="M200.44,63.52c-.53-3.62-5.16-5.84-8.88-5.43a9.18,9.18,0,0,0-5.93,3.46A9.28,9.28,0,0,0,181,60a7.44,7.44,0,0,0-2,.14,6.81,6.81,0,0,0-5.18,8.12,6.68,6.68,0,0,0,.79,2,5.62,5.62,0,0,0,8,7.82,6.82,6.82,0,0,0,9.59-.17,5.62,5.62,0,0,0,6.26-9.12C199,68.18,200.81,66.06,200.44,63.52Z"/></g></g></svg>