<svg xmlns="http://www.w3.org/2000/svg" viewBox="0 0 233.2 169.5"><defs><style>.cls-1{fill:#8154ef;}.cls-2,.cls-3,.cls-5,.cls-6{fill:none;}.cls-2,.cls-3,.cls-4{stroke:#042a2b;}.cls-2,.cls-6{stroke-linecap:round;}.cls-2,.cls-3,.cls-4,.cls-5,.cls-6{stroke-width:2px;}.cls-4{fill:#fff;}.cls-4,.cls-5,.cls-6{stroke-miterlimit:10;}.cls-5,.cls-6{stroke:#8154EF;}</style></defs><title>Sales and Marketing </title><g id="Layer_2" data-name="Layer 2"><g id="Layer_1-2" data-name="Layer 1"><path class="cls-1" d="M171.9,2h8.6a1.75,1.75,0,0,1,1.7,1.7V152h-12V3.7A1.75,1.75,0,0,1,171.9,2Z"/><path class="cls-1" d="M129.9,60h8.6a1.75,1.75,0,0,1,1.7,1.7V156h-12V61.7A1.75,1.75,0,0,1,129.9,60Z"/><path class="cls-1" d="M86.9,106h8.6a1.75,1.75,0,0,1,1.7,1.7V155h-12V107.7A1.75,1.75,0,0,1,86.9,106Z"/><path class="cls-1" d="M44.9,122h8.6a1.75,1.75,0,0,1,1.7,1.7V155h-12V123.7A1.75,1.75,0,0,1,44.9,122Z"/><path class="cls-2" d="M1,155.5l230.2-1.9"/><path class="cls-3" d="M107.8,60.4h24.9a1.75,1.75,0,0,1,1.7,1.7v92.2H106V62.1a1.92,1.92,0,0,1,1.8-1.7Z"/><path class="cls-3" d="M65,104.8H89.9a1.75,1.75,0,0,1,1.7,1.7v47.8H63.2V106.5a1.77,1.77,0,0,1,1.8-1.7Z"/><path class="cls-3" d="M22.2,121.8H47.1a1.75,1.75,0,0,1,1.7,1.7v30.8H20.4V123.5a1.77,1.77,0,0,1,1.8-1.7Z"/><path class="cls-3" d="M150.6,1h24.9a1.75,1.75,0,0,1,1.7,1.7V154.3H148.8V2.8A1.86,1.86,0,0,1,150.6,1Z"/><circle class="cls-4" cx="206.6" cy="153.8" r="14.7"/><ellipse class="cls-1" cx="209.5" cy="153.8" rx="9.3" ry="10.2"/><circle class="cls-5" cx="227.2" cy="47" r="5"/><polygon class="cls-6" points="24.2 59 22.9 64.9 21.5 70.7 17.2 66.6 12.8 62.5 18.5 60.8 24.2 59"/></g></g></svg>