<svg xmlns="http://www.w3.org/2000/svg" xmlns:xlink="http://www.w3.org/1999/xlink" viewBox="0 0 226.73 103.75"><defs><style>.cls-1{fill:none;}.cls-2{fill:#00a5b5;}.cls-3{fill:#00828f;}.cls-4{fill:#8dd2e3;}.cls-5{fill:#0098c8;}.cls-6{clip-path:url(#clip-path);}</style><clipPath id="clip-path"><rect class="cls-1" x="45.13" y="11.65" width="136.47" height="58.12"/></clipPath></defs><g id="Layer_2" data-name="Layer 2"><g id="Layer_1-2" data-name="Layer 1"><polygon class="cls-2" points="174.4 28.27 167.2 32.43 174.4 36.59 174.4 28.27"/><polygon class="cls-2" points="167.2 40.74 174.4 36.59 167.2 32.43 167.2 40.74"/><polygon class="cls-2" points="174.4 19.96 167.2 24.12 174.4 28.27 174.4 19.96"/><polygon class="cls-3" points="167.2 32.43 174.4 28.27 167.2 24.12 167.2 32.43"/><polygon class="cls-4" points="174.4 19.96 181.6 24.12 181.6 15.8 174.4 19.96"/><polygon class="cls-4" points="174.4 11.65 174.4 19.96 181.6 15.8 181.6 15.8 174.4 11.65"/><polygon class="cls-2" points="174.4 28.27 181.6 24.12 181.6 24.12 174.4 19.96 174.4 28.27"/><polygon class="cls-5" points="167.2 32.43 160 36.59 167.2 40.74 167.2 32.43"/><polygon class="cls-2" points="160 36.59 152.8 40.74 160 44.9 160 36.59"/><polygon class="cls-5" points="160 44.9 167.2 40.74 160 36.59 160 44.9"/><polygon class="cls-3" points="160 36.59 167.2 32.43 167.2 40.74 160 36.59"/><polygon class="cls-3" points="160 36.59 167.2 40.74 160 44.9 160 36.59"/><polygon class="cls-4" points="160 36.59 167.2 32.43 160 28.27 160 36.59"/><polygon class="cls-2" points="152.8 32.43 160 36.59 152.8 40.74 152.8 32.43"/><polygon class="cls-4" points="160 36.59 152.8 32.43 160 28.27 160 36.59"/><polygon class="cls-4" points="167.2 32.43 160 28.27 167.2 24.12 167.2 32.43"/><polygon class="cls-4" points="160 28.27 167.2 24.12 160 19.96 160 28.27"/><polygon class="cls-2" points="167.2 24.12 160 19.96 167.2 15.8 167.2 24.12"/><polygon class="cls-4" points="167.2 49.06 160 44.9 167.2 40.74 167.2 49.06"/><rect class="cls-2" x="61.64" y="42.62" width="8.09" height="5.13"/><polygon class="cls-2" points="45.13 42.6 45.13 47.64 53.91 47.64 53.91 69.69 60 69.69 60 48.28 59.98 48.28 59.98 42.55 45.13 42.6"/><g class="cls-6"><path class="cls-2" d="M68.45,58A12.19,12.19,0,0,1,68.58,56a2.53,2.53,0,0,1,.48-1.16,1.89,1.89,0,0,1,1-.59,6.33,6.33,0,0,1,1.61-.17,6.25,6.25,0,0,1,1.6.17,2,2,0,0,1,1,.59,2.43,2.43,0,0,1,.5,1.16A12.19,12.19,0,0,1,74.84,58Zm3.32-8.15a14.16,14.16,0,0,0-4.33.57A6.64,6.64,0,0,0,64.6,52.1,6.47,6.47,0,0,0,63.05,55a15.6,15.6,0,0,0-.46,4v2A15.72,15.72,0,0,0,63,64.88a6.21,6.21,0,0,0,1.46,2.73,6.35,6.35,0,0,0,2.77,1.62,14.84,14.84,0,0,0,4.35.53h3.47c1,0,2.2,0,3.43-.07l.85-4.57-3.93,0H72.14A9.71,9.71,0,0,1,70.37,65a2.31,2.31,0,0,1-1.12-.49,1.91,1.91,0,0,1-.59-1A7.25,7.25,0,0,1,68.45,62h8.71a5.33,5.33,0,0,0,1.55-.19,2,2,0,0,0,1-.66,2.81,2.81,0,0,0,.54-1.25,11,11,0,0,0,.14-2v-.77a7.17,7.17,0,0,0-2-5.4c-1.32-1.3-3.54-1.94-6.64-1.94"/><path class="cls-2" d="M114.23,65.6h-3.91a3.49,3.49,0,0,1-2.14-.48,1.9,1.9,0,0,1-.59-1.55v-.26a1.9,1.9,0,0,1,.61-1.61,4.19,4.19,0,0,1,2.34-.46h.52a4.15,4.15,0,0,1,2.56.54,2.13,2.13,0,0,1,.61,1.68Zm3.52-13.67q-2.19-1.6-6.81-1.6h-3.76c-1.08,0-2,0-2.69.06l-.85,4.54q.81,0,1.77-.06l1.9,0h3.27a7.67,7.67,0,0,1,1.93.19,2.33,2.33,0,0,1,1.11.57,1.94,1.94,0,0,1,.52.94,6.36,6.36,0,0,1,.12,1.33v.4a8.35,8.35,0,0,0-1.86-.7,12,12,0,0,0-3-.29q-3.8,0-5.64,1.38a5.18,5.18,0,0,0-1.85,4.44v.78a7.56,7.56,0,0,0,.37,2.43,4.23,4.23,0,0,0,1.22,1.83,5.66,5.66,0,0,0,2.23,1.14,12.91,12.91,0,0,0,3.45.39h6.53a8.46,8.46,0,0,0,2-.19,2.86,2.86,0,0,0,1.31-.62,2.41,2.41,0,0,0,.72-1.18,6.31,6.31,0,0,0,.22-1.81V57.3q0-3.77-2.19-5.37"/><path class="cls-2" d="M151,50.29H147a16.93,16.93,0,0,0-3.63.35,6.16,6.16,0,0,0-2.62,1.2,5.06,5.06,0,0,0-1.57,2.25,10.19,10.19,0,0,0-.51,3.46V69.69h5.86V58.18a9.88,9.88,0,0,1,.09-1.42,1.88,1.88,0,0,1,.43-1,2,2,0,0,1,.94-.55,5.78,5.78,0,0,1,1.6-.18H151Zm9.49,15.31h-3.91a3.51,3.51,0,0,1-2.14-.48,1.9,1.9,0,0,1-.59-1.55v-.26a1.9,1.9,0,0,1,.61-1.61,4.23,4.23,0,0,1,2.34-.46h.52a4.13,4.13,0,0,1,2.56.54,2.09,2.09,0,0,1,.61,1.68Zm5.72.29V57.3q0-3.77-2.2-5.37a9.93,9.93,0,0,0-5.17-1.54v0l-.46,0-1.17,0h-1l-3.24,0v4.78l6.07,0a2.2,2.2,0,0,1,.89.51,1.94,1.94,0,0,1,.52.94,6.3,6.3,0,0,1,.13,1.33v.4a8.65,8.65,0,0,0-1.87-.7,12.44,12.44,0,0,0-3-.29q-3.81,0-5.65,1.38a5.18,5.18,0,0,0-1.84,4.44v.78a7.3,7.3,0,0,0,.37,2.43,4.2,4.2,0,0,0,1.21,1.83A5.63,5.63,0,0,0,152,69.3a12.88,12.88,0,0,0,3.44.39H162a8.56,8.56,0,0,0,2-.19,3,3,0,0,0,1.31-.62A2.57,2.57,0,0,0,166,67.7a6.68,6.68,0,0,0,.22-1.81"/><path class="cls-2" d="M131.47,65.15a10.44,10.44,0,0,1-1.84-.14,2.28,2.28,0,0,1-1.18-.59,2.41,2.41,0,0,1-.61-1.26,11.17,11.17,0,0,1-.16-2.14v-2a11.17,11.17,0,0,1,.16-2.14,2.56,2.56,0,0,1,.59-1.26,2.18,2.18,0,0,1,1.16-.59,10.69,10.69,0,0,1,1.88-.14h2.44l1,0,1.14.06L137,50.4c-1.4,0-2.54-.07-3.41-.07h-2.31a18,18,0,0,0-4.42.47,6.75,6.75,0,0,0-3,1.54,5.88,5.88,0,0,0-1.65,2.71,14.16,14.16,0,0,0-.49,4v2a14.81,14.81,0,0,0,.48,4.06,5.69,5.69,0,0,0,1.6,2.69,6.82,6.82,0,0,0,3,1.51,18.31,18.31,0,0,0,4.56.48h2.08l2.75-.06.88-4.61c-1,0-1.92.07-2.74.07Z"/><path class="cls-2" d="M98.17,51.41a6.66,6.66,0,0,0-2.82-1.23,23.68,23.68,0,0,0-8.34,0,6.77,6.77,0,0,0-2.82,1.23,5.11,5.11,0,0,0-1.6,2.25,9.71,9.71,0,0,0-.52,3.41V69.69h5.87V57.52a6.42,6.42,0,0,1,.11-1.33,1.84,1.84,0,0,1,.44-.92,1.89,1.89,0,0,1,1-.54,9.27,9.27,0,0,1,3.43,0,1.78,1.78,0,0,1,1.42,1.46,7.2,7.2,0,0,1,.11,1.33V69.69h5.86V57.07a10,10,0,0,0-.51-3.41,5.13,5.13,0,0,0-1.61-2.25"/></g><rect class="cls-1" width="226.73" height="103.75"/></g></g></svg>