<svg xmlns="http://www.w3.org/2000/svg" viewBox="0 0 235.32 207.57"><defs><style>.cls-1,.cls-2,.cls-4{fill:none;}.cls-1,.cls-2{stroke:#8154EF;stroke-miterlimit:10;stroke-width:2.54px;}.cls-2,.cls-4{stroke-linecap:round;}.cls-3{fill:#8154EF;}.cls-4{stroke:#042a2b;stroke-width:2px;}</style></defs><title>Unmatched Value</title><g id="Layer_2" data-name="Layer 2"><g id="Layer_1-2" data-name="Layer 1"><circle class="cls-1" cx="227.75" cy="7.57" r="6.3"/><polygon class="cls-2" points="11.85 191.87 14.55 198.87 17.25 205.97 9.75 204.77 2.35 203.57 7.05 197.67 11.85 191.87"/><polygon class="cls-3" points="67.87 71.45 71.09 77.97 78.29 79.02 73.08 84.1 74.31 91.27 67.87 87.89 61.43 91.27 62.66 84.1 57.45 79.02 64.65 77.97 67.87 71.45"/><polygon class="cls-3" points="189.9 32.81 198.67 50.36 218.29 53.18 204.09 66.84 207.45 86.14 189.9 77.03 172.35 86.14 175.7 66.84 161.51 53.18 181.13 50.36 189.9 32.81"/><polygon class="cls-4" points="122.79 99.81 149.26 145.65 175.72 191.49 122.79 191.49 69.86 191.49 96.33 145.65 122.79 99.81"/><line class="cls-4" x1="22.38" y1="95.78" x2="223.21" y2="100.07"/><polygon class="cls-4" points="62.4 68.86 66.46 77.09 75.54 78.41 68.97 84.81 70.52 93.86 62.4 89.59 54.28 93.86 55.83 84.81 49.26 78.41 58.34 77.09 62.4 68.86"/><polygon class="cls-4" points="177.04 30.62 187.22 50.99 209.98 54.25 193.51 70.1 197.4 92.49 177.04 81.92 156.69 92.49 160.58 70.1 144.11 54.25 166.87 50.99 177.04 30.62"/></g></g></svg>